<svg xmlns="http://www.w3.org/2000/svg" viewBox="0 0 73.19 93.99"><path d="M552.62,1190.82a9.78,9.78,0,1,0-12.41-6.09A9.78,9.78,0,0,0,552.62,1190.82Z" transform="translate(-526.41 -1171.78)"/><path d="M553.32,1258.77a19.92,19.92,0,0,1-7.75-38.26l-2.73-6.45a26.92,26.92,0,1,0,37.39,24.8h-7A19.93,19.93,0,0,1,553.32,1258.77Z" transform="translate(-526.41 -1171.78)"/><path d="M596.87,1250h-5v-24.22H561.46l-2-18.2,12.76,8a3.71,3.71,0,0,0,3.94-6.28L556,1196.62a3.35,3.35,0,0,0-1-.41,6.38,6.38,0,0,0-4.57-.8,6.53,6.53,0,0,0-5.13,7.66l2.88,23.4v9h36.39v20h12.28a2.73,2.73,0,0,0,0-5.45Z" transform="translate(-526.41 -1171.78)"/></svg>