<svg xmlns="http://www.w3.org/2000/svg" viewBox="0 0 47.56 43.73"><defs><style>.a{fill:#c1c1c0;}</style></defs><path class="a" d="M601.22,1248.28l-8.94-7.41v-10.58h-5.55v6l-9.29-7.69-23.77,19.7.9,1.78,5.18-4.3v26.55H595v-26.68l5.34,4.42Zm-12.84-15.87h2.25v7.1l-2.25-1.87Zm5,32.66H561.4v-20.68l16-13.29,15.89,13.16Z" transform="translate(-553.67 -1228.58)"/><path class="a" d="M570.27,1245.48V1257a1.61,1.61,0,0,0,1.38,1.77h11.43a1.61,1.61,0,0,0,1.38-1.77v-11.51a1.61,1.61,0,0,0-1.38-1.76H571.65A1.61,1.61,0,0,0,570.27,1245.48Zm1.66,6.82h4.61v4.34h-4.61Zm6.26,4.34v-4.34h4.62v4.34Zm4.62-6.46h-4.62v-4.35h4.62Zm-6.27-4.35v4.35h-4.61v-4.35Z" transform="translate(-553.67 -1228.58)"/></svg>