<svg xmlns="http://www.w3.org/2000/svg" viewBox="0 0 36 34"><defs><style>.a{fill:#fff;}.b{fill:#ccc;}.c{isolation:isolate;}</style></defs><rect class="a" width="36" height="34"/><path class="b" d="M577.89,1233.77h-2.5v-1.5h-.5v-4h3Zm-7.5,0h-5v-3h5Zm-10,0h-5v-3h5Zm-10,0h-5v-3h5Zm-5.5-4.5h-3v-5h3Zm33-6h-3v-5h3Zm-33-4h-3v-5h3Zm33-6h-3v-5h3Zm-33-4h-3v-5h3Zm33-6h-3v-.5h-1.5v-3h4.5Zm-9.5-.5h-5v-3h5Zm-10,0h-5v-3h5Zm-10,0h-5v-3h5Z" transform="translate(-541.89 -1199.77)"/><g class="c"><g class="c"><path class="b" d="M555,1208.75a8.35,8.35,0,0,1,2.09-1.1,7.32,7.32,0,0,1,2.59-.46,5.61,5.61,0,0,1,2,.36,5,5,0,0,1,1.61,1,4.42,4.42,0,0,1,1.05,1.5,4.72,4.72,0,0,1,.37,1.89,5,5,0,0,1-.58,2.43c-.39.72-.82,1.45-1.29,2.2a19.35,19.35,0,0,0-1.31,2.49,8.16,8.16,0,0,0-.6,3.29h-3.12a9.46,9.46,0,0,1,.57-3.48,16.25,16.25,0,0,1,1.25-2.54c.45-.73.86-1.41,1.24-2a3.79,3.79,0,0,0,.57-2,1.87,1.87,0,0,0-.72-1.68,2.85,2.85,0,0,0-1.62-.48,4.55,4.55,0,0,0-1.89.42,4,4,0,0,0-1.47,1.08Zm2.34,17.25a2,2,0,0,1,.63-1.46,2.07,2.07,0,0,1,1.5-.61,2.17,2.17,0,0,1,1.53.61,2,2,0,0,1,.66,1.49,1.92,1.92,0,0,1-.67,1.48,2.25,2.25,0,0,1-1.55.62,2,2,0,0,1-1.48-.63A2.08,2.08,0,0,1,557.31,1226Z" transform="translate(-541.89 -1199.77)"/></g></g></svg>