<svg xmlns="http://www.w3.org/2000/svg" viewBox="0 0 47.56 43.76"><defs><style>.a{fill:#ccc;fill-rule:evenodd;}</style></defs><path class="a" d="M539.22,1235h5.7V1196.9a.62.62,0,0,1,.6-.61h19.3a.61.61,0,0,1,.61.61v14.29h17.08a.6.6,0,0,1,.6.61V1235h3.67v5H539.22Zm10.57-33h4a.22.22,0,0,1,.22.22V1207a.22.22,0,0,1-.22.22h-4a.22.22,0,0,1-.22-.22v-4.78a.23.23,0,0,1,.22-.23Zm6.69,23.79h3.95a.22.22,0,0,1,.22.22v4.79a.22.22,0,0,1-.22.22h-3.95a.22.22,0,0,1-.22-.22V1226a.22.22,0,0,1,.22-.22Zm-6.69,0h4a.22.22,0,0,1,.22.22v4.79a.22.22,0,0,1-.22.22h-4a.22.22,0,0,1-.22-.22V1226a.22.22,0,0,1,.22-.22Zm6.69-7.93h3.95a.22.22,0,0,1,.22.22v4.78a.22.22,0,0,1-.22.22h-3.95a.22.22,0,0,1-.22-.22v-4.78a.22.22,0,0,1,.22-.22Zm-6.69,0h4a.22.22,0,0,1,.22.22v4.78a.22.22,0,0,1-.22.22h-4a.22.22,0,0,1-.22-.22v-4.78a.22.22,0,0,1,.22-.22Zm6.69-7.93h3.95a.22.22,0,0,1,.22.22V1215a.23.23,0,0,1-.22.23h-3.95a.23.23,0,0,1-.22-.23v-4.78a.22.22,0,0,1,.22-.22Zm-6.69,0h4a.22.22,0,0,1,.22.22V1215a.23.23,0,0,1-.22.23h-4a.23.23,0,0,1-.22-.23v-4.78a.22.22,0,0,1,.22-.22Zm6.69-7.93h3.95a.22.22,0,0,1,.22.22V1207a.22.22,0,0,1-.22.22h-3.95a.22.22,0,0,1-.22-.22v-4.78a.23.23,0,0,1,.22-.23Zm-8.29-2.9h13.9a.49.49,0,0,1,.44.52v33.23a.49.49,0,0,1-.44.52h-13.9a.49.49,0,0,1-.44-.52v-33.23a.5.5,0,0,1,.44-.53ZM567.32,1217h3.95a.22.22,0,0,1,.22.22V1222a.22.22,0,0,1-.22.22h-3.95a.22.22,0,0,1-.22-.22v-4.78A.22.22,0,0,1,567.32,1217Zm6.69,8.85h4a.22.22,0,0,1,.22.22v4.78a.23.23,0,0,1-.22.23h-4a.23.23,0,0,1-.22-.23V1226a.22.22,0,0,1,.22-.22Zm-6.69,0h3.95a.22.22,0,0,1,.22.22v4.78a.23.23,0,0,1-.22.23h-3.95a.23.23,0,0,1-.22-.23V1226a.22.22,0,0,1,.22-.22ZM574,1217h4a.22.22,0,0,1,.22.22V1222a.22.22,0,0,1-.22.22h-4a.22.22,0,0,1-.22-.22v-4.78a.22.22,0,0,1,.22-.22Zm-8.14-3h13.9a.5.5,0,0,1,.44.53v18.33a.49.49,0,0,1-.44.52h-13.9a.49.49,0,0,1-.44-.52v-18.33A.5.5,0,0,1,565.87,1214Z" transform="translate(-539.22 -1196.29)"/></svg>