<svg xmlns="http://www.w3.org/2000/svg" viewBox="0 0 112.23 83.56"><path d="M593.74,1197.08l-.06-.07a.85.85,0,0,0-1.2-.21h0l-6.67,4.67a.85.85,0,0,0-.21,1.19h0l.06.07a.86.86,0,0,0,1.19.21h0l6.66-4.67A.88.88,0,0,0,593.74,1197.08Zm17.58,26.32-3.61,16.87a15.81,15.81,0,0,1-5.8,9.59,16.51,16.51,0,0,1-7,3l2.37,5.07a2.2,2.2,0,0,1-4,1.86l-3.07-6.57H537.69l-3.07,6.56a2.19,2.19,0,0,1-4-1.85l2.24-4.79a14.92,14.92,0,0,1-8.49-3.28c-2.64-2.19-4.45-5.38-5.53-9.53l-4.45-17h-3.48a4.06,4.06,0,0,1-2.85-1.18h0a4,4,0,0,1-1.18-2.86v-3.68a4,4,0,0,1,1.18-2.86,1.37,1.37,0,0,1,.18-.16,3.92,3.92,0,0,1,2.67-1h.54a8.92,8.92,0,0,1,1.71-4.43,10.92,10.92,0,0,1,3.82-3.29,10.11,10.11,0,0,1,5-1.19,8.78,8.78,0,0,1,4.47,1.37,9.89,9.89,0,0,1,2.26-2.35,10.35,10.35,0,0,1,11.47-.63,10.13,10.13,0,0,1,3,2.79,10.29,10.29,0,0,1,6.32,2.84,9.81,9.81,0,0,1,2.77,4.88h59v-21.77c-1.28-6.29-4.92-8-9.77-7.31,2.18,3.81,1.9,7.68-1.19,11.63a1.93,1.93,0,0,1-.07,2.09l-1,1.11c-.38.4-.87.43-1.49-.07l-14.83-15a.79.79,0,0,1-.06-1.11.87.87,0,0,1,.21-.17c1.05-1.29,1.18-1.51,3.05-1.19,4.17-2.7,8.12-3.19,11.85-1,9.36-3.85,17.33,1,18.41,10.81h0v22.25a4,4,0,0,1,1.45.93,4,4,0,0,1,1.18,2.86v3.68a4,4,0,0,1-4,4.05Zm-26-33.54-.05-.07a.86.86,0,0,0-1.2-.21h0l-6.68,4.67a.86.86,0,0,0-.21,1.2h0l.06.07a.84.84,0,0,0,1.19.21h0l6.66-4.66a.87.87,0,0,0,.22-1.2h0ZM581.5,1186l0-.07a.86.86,0,0,0-1.2-.21h0l-6.67,4.67a.86.86,0,0,0-.21,1.2h0l0,.07a.85.85,0,0,0,1.2.21h0l6.67-4.66a.86.86,0,0,0,.21-1.2Zm7.66,7.59,0-.07a.86.86,0,0,0-1.2-.21h0l-6.67,4.67a.86.86,0,0,0-.21,1.2h0l.05.07a.86.86,0,0,0,1.2.21h0l6.68-4.67a.87.87,0,0,0,.2-1.2Zm-73.24,18.05h31.81a5.14,5.14,0,0,0-1.2-1.71,5.89,5.89,0,0,0-4.1-1.64c-.25,0,0,0-.15,0h-.15a2.19,2.19,0,0,1-2-1.17,5.54,5.54,0,0,0-2.12-2.2,6,6,0,0,0-6.6.34,5.51,5.51,0,0,0-2,2.94,2.19,2.19,0,0,1-2.64,1.62,2.24,2.24,0,0,1-1.19-.75,4.87,4.87,0,0,0-3.65-2,5.74,5.74,0,0,0-2.84.69,6.82,6.82,0,0,0-2.27,2,4.9,4.9,0,0,0-.84,1.86Zm-1.57,4.4a2.28,2.28,0,0,1-1,0h-2v3H614.72v-3Zm4.6,7.36,4.15,15.86c.85,3.23,2.18,5.66,4.09,7.24a11.55,11.55,0,0,0,7.66,2.34H590.8a13.66,13.66,0,0,0,8.43-2.47,11.54,11.54,0,0,0,4.17-7l3.42-16Z" transform="translate(-506.89 -1177.49)"/></svg>