<svg xmlns="http://www.w3.org/2000/svg" viewBox="0 0 99.6 81.02"><path d="M516.62,1232.26h92.67v-3.79a6.62,6.62,0,0,0-.5-2.52,6.76,6.76,0,0,0-1.46-2.16,8.55,8.55,0,0,0-1.28-1,9.91,9.91,0,0,0-1.5-.83l-4.23-.87c-1.4-.28-2.82-.53-4.26-.78a1,1,0,0,1-.17,0l-2.07-.34-2.08-.32h0q-7.44-1-14.84-1.45c-5-.32-9.86-.49-14.76-.49q-4.35,0-8.69.16c-2.87.11-5.77.28-8.66.5h0c-2.71.25-5.41.57-8.11.93s-5.41.8-8.14,1.28l-.3.07-.16,0h-.14c-1.28.23-2.58.48-3.93.75s-2.61.53-3.9.82a9,9,0,0,0-.93.58,9.41,9.41,0,0,0-.83.71h0a5.73,5.73,0,0,0-1.26,1.86,5.47,5.47,0,0,0-.43,2.18v4.75Zm8.09-54.6h75.38a7.33,7.33,0,0,1,2.78.55,7.46,7.46,0,0,1,2.37,1.58,7.23,7.23,0,0,1,2.13,5.14v34.61a9.89,9.89,0,0,1,1.19.8,11.72,11.72,0,0,1,1.19,1,9.92,9.92,0,0,1,3,7.11v4.94l.06.24v0a1.51,1.51,0,0,1,0,.3.82.82,0,0,1,0,.31h0a2.1,2.1,0,0,1-.06.24V1257a1.72,1.72,0,0,1-1.71,1.71h-3.53a1.7,1.7,0,0,1-1.65-1.28,23.87,23.87,0,0,0-2-4.5,7.14,7.14,0,0,0-5.47-3.68,25.64,25.64,0,0,0-4.55-.29l-64.65.08h0a8.31,8.31,0,0,0-3.2.48,5.57,5.57,0,0,0-2.15,1.51,10.71,10.71,0,0,0-1.72,2.74,39.77,39.77,0,0,0-1.43,3.76h0a1.63,1.63,0,0,1-.63.85,1.7,1.7,0,0,1-.92.32h-4.15a1.72,1.72,0,0,1-1.71-1.71v-29.43a9.13,9.13,0,0,1,.68-3.5,9.26,9.26,0,0,1,2-3c.25-.26.52-.49.79-.72s.49-.38.75-.55v-34.93a7.22,7.22,0,0,1,.55-2.75,7.32,7.32,0,0,1,6.72-4.45Zm75.38,3.42H524.71a4.19,4.19,0,0,0-1.49.28,4.12,4.12,0,0,0-1.26.83,3.75,3.75,0,0,0-.82,1.22,4,4,0,0,0-.28,1.45v33.29c.24-.08.49-.15.74-.21a10.13,10.13,0,0,1,1.19-.26l1.8-.32,1.54-.25v-8.5a9.51,9.51,0,0,1,5.88-8.78,9.39,9.39,0,0,1,3.62-.72H551.7a9.39,9.39,0,0,1,3.62.72,9.51,9.51,0,0,1,5.88,8.78V1214h1.71v-5.41a9.39,9.39,0,0,1,.72-3.62,9.51,9.51,0,0,1,8.78-5.88h16.07a9.51,9.51,0,0,1,9.5,9.5V1217c.61.08,1.26.19,1.95.3l2.22.37c.37.06.74.14,1.11.23l.69.17v-33.14a3.67,3.67,0,0,0-.3-1.46,3.84,3.84,0,0,0-3.55-2.39Zm-51.86,33.51c1.63-.12,3.27-.23,4.93-.31s3.08-.14,4.63-.18v-5.49a6.15,6.15,0,0,0-1.79-4.29,6.16,6.16,0,0,0-2-1.33,6,6,0,0,0-2.32-.46H535.63a6,6,0,0,0-4.29,1.79,6.16,6.16,0,0,0-1.33,2,5.93,5.93,0,0,0-.47,2.31v8l4-.55c1.47-.18,2.93-.36,4.37-.52l1.79-.2,1.84-.18c1.1-.11,2.2-.2,3.27-.29l3.41-.23Zm18.1-.54c1,0,2,0,2.94.08s2.17.08,3.25.13h0c1.78.06,3.51.14,5.2.24s3.33.22,4.9.36c2.29.2,4.5.44,6.6.73,1.88.25,3.66.55,5.33.87v-7.85a5.74,5.74,0,0,0-.46-2.31,6.06,6.06,0,0,0-1.33-2,6.12,6.12,0,0,0-2-1.33,6,6,0,0,0-2.32-.46H572.42a5.93,5.93,0,0,0-2.32.46,6.16,6.16,0,0,0-2,1.33,6.51,6.51,0,0,0-1.33,2,6.1,6.1,0,0,0-.46,2.31v5.44Zm43,21.64H516.62v19.56h1.16a31.13,31.13,0,0,1,1.45-3.53,13.44,13.44,0,0,1,2-3,8.91,8.91,0,0,1,3.31-2.38,11.79,11.79,0,0,1,4.66-.75l64.6-.08a29,29,0,0,1,5.43.4,11,11,0,0,1,4.16,1.62,10.76,10.76,0,0,1,3,3.06,22.65,22.65,0,0,1,2.29,4.66h.62v-19.55Z" transform="translate(-513.2 -1177.66)"/></svg>