<svg xmlns="http://www.w3.org/2000/svg" xmlns:xlink="http://www.w3.org/1999/xlink" viewBox="0 0 46.98 42.98"><defs><style>.a{fill:none;}.b{clip-path:url(#a);}.c{fill:#f7931e;}.d{clip-path:url(#b);}.e{fill:#fbb03b;}</style><clipPath id="a" transform="translate(-553.95 -1228.95)"><rect class="a" x="553.95" y="1228.95" width="36.98" height="36.98"/></clipPath><clipPath id="b" transform="translate(-553.95 -1228.95)"><rect class="a" x="563.95" y="1234.95" width="36.98" height="36.98"/></clipPath></defs><g class="b"><path class="c" d="M554,1265.94v-4.63c0-5.08,8.32-9.24,18.49-9.24s18.5,4.16,18.5,9.24v4.63Zm9.25-27.74a9.25,9.25,0,1,1,9.24,9.24A9.25,9.25,0,0,1,563.2,1238.2Z" transform="translate(-553.95 -1228.95)"/></g><g class="d"><path class="e" d="M564,1271.94v-4.63c0-5.08,8.32-9.24,18.49-9.24s18.5,4.16,18.5,9.24v4.63Zm9.25-27.74a9.25,9.25,0,1,1,9.24,9.24A9.25,9.25,0,0,1,573.2,1244.2Z" transform="translate(-553.95 -1228.95)"/></g></svg>