<svg xmlns="http://www.w3.org/2000/svg" viewBox="0 0 64 46"><defs><style>.a{fill:#fbb03b;}.b{fill:#fff;}.c{fill:#f7931e;}</style></defs><path class="a" d="M590,1267.41h0Z" transform="translate(-545.44 -1227.44)"/><path class="a" d="M609.44,1262v0Z" transform="translate(-545.44 -1227.44)"/><path class="a" d="M590.94,1267.37h0Z" transform="translate(-545.44 -1227.44)"/><path class="a" d="M589.35,1262.42a1.79,1.79,0,0,1,.09.46v.15c-.05.91-.85,1.72-2.19,2.41a6.54,6.54,0,0,1,1.45,1c11.69-.16,19.74-2.43,19.74-4.49,0-.66-.83-1.34-2.36-2C602.3,1261.44,595.84,1262.28,589.35,1262.42Z" transform="translate(-545.44 -1227.44)"/><path class="a" d="M609.44,1257v0Z" transform="translate(-545.44 -1227.44)"/><path class="a" d="M589.35,1257.42a1.79,1.79,0,0,1,.09.46v.15c-.05.91-.85,1.72-2.19,2.41a6.54,6.54,0,0,1,1.45,1c11.69-.16,19.74-2.43,19.74-4.49,0-.66-.83-1.34-2.36-2C602.3,1256.44,595.84,1257.28,589.35,1257.42Z" transform="translate(-545.44 -1227.44)"/><path class="a" d="M609.44,1252v0Z" transform="translate(-545.44 -1227.44)"/><path class="a" d="M608.44,1251.94c0-.66-.83-1.34-2.36-2-3.78,1.47-10.24,2.31-16.73,2.45a1.79,1.79,0,0,1,.09.46v.15c-.05.91-.85,1.72-2.19,2.41a6.54,6.54,0,0,1,1.45,1C600.39,1256.27,608.44,1254,608.44,1251.94Z" transform="translate(-545.44 -1227.44)"/><path class="b" d="M609.44,1252v-.15c0-.93-.84-1.74-2.19-2.44,1.34-.69,2.14-1.5,2.19-2.41v-.15c-.13-3.15-9.09-5-18.54-5.37h-.18l-.79,0h-1.21a6.28,6.28,0,0,0-1.47-1c1.34-.69,2.14-1.5,2.19-2.41v-.15c0-.93-.84-1.74-2.19-2.44,1.34-.69,2.14-1.5,2.19-2.41v-.15c-.13-3.15-9.09-5-18.54-5.37h-.18l-.79,0h-5l-.79,0H564c-9.52.37-18.55,2.25-18.55,5.43,0,1,.82,1.79,2.2,2.5-1.38.72-2.2,1.55-2.2,2.5s.82,1.79,2.2,2.5c-1.38.72-2.2,1.55-2.2,2.5s.82,1.79,2.2,2.5c-1.38.72-2.2,1.55-2.2,2.5s.82,1.79,2.2,2.5c-1.38.72-2.2,1.55-2.2,2.5s.82,1.79,2.2,2.5c-1.38.72-2.2,1.55-2.2,2.5s.82,1.79,2.2,2.5c-1.38.72-2.2,1.55-2.2,2.5s.82,1.79,2.2,2.5c-1.38.72-2.2,1.55-2.2,2.5,0,3.19,9,5.06,18.51,5.43h.25l.7,0H570l.7,0h.25c9.43-.36,18.34-2.21,18.5-5.34v-.15a1.79,1.79,0,0,0-.09-.46H590l.7,0h.25c9.43-.36,18.34-2.21,18.5-5.34v-.15c0-.93-.84-1.74-2.19-2.44,1.34-.69,2.14-1.5,2.19-2.41v-.15c0-.93-.84-1.74-2.19-2.44C608.59,1253.75,609.39,1252.94,609.44,1252Zm-1,4.91c0,2.06-8.05,4.33-19.74,4.49a6.54,6.54,0,0,0-1.45-1c1.34-.69,2.14-1.5,2.19-2.41v-.15a1.79,1.79,0,0,0-.09-.46c6.49-.14,12.95-1,16.73-2.45C607.61,1255.6,608.44,1256.28,608.44,1256.94Zm0,5c0,2.06-8.05,4.33-19.74,4.49a6.54,6.54,0,0,0-1.45-1c1.34-.69,2.14-1.5,2.19-2.41v-.15a1.79,1.79,0,0,0-.09-.46c6.49-.14,12.95-1,16.73-2.45C607.61,1260.6,608.44,1261.28,608.44,1261.94Zm-62,1c0-.66.84-1.34,2.36-2,4.16,1.62,11.55,2.47,18.64,2.47s14.49-.85,18.64-2.47c1.53.63,2.36,1.31,2.36,2,0,2.13-8.62,4.5-21,4.5S546.44,1265.07,546.44,1262.94Zm0-5c0-.66.84-1.34,2.36-2,4.16,1.62,11.55,2.47,18.64,2.47s14.49-.85,18.64-2.47c1.53.63,2.36,1.31,2.36,2,0,2.13-8.62,4.5-21,4.5S546.44,1260.07,546.44,1257.94Zm0-5c0-.66.84-1.34,2.36-2,4.16,1.62,11.55,2.47,18.64,2.47s14.49-.85,18.64-2.47c1.53.63,2.36,1.31,2.36,2,0,2.13-8.62,4.5-21,4.5S546.44,1255.07,546.44,1252.94Zm0-5c0-.66.84-1.34,2.36-2,4.16,1.62,11.55,2.47,18.64,2.47s14.49-.85,18.64-2.47c1.53.63,2.36,1.31,2.36,2,0,2.13-8.62,4.5-21,4.5S546.44,1250.07,546.44,1247.94Zm0-5c0-.66.84-1.34,2.36-2,4.16,1.62,11.55,2.47,18.64,2.47s14.49-.85,18.64-2.47c1.53.63,2.36,1.31,2.36,2,0,2.13-8.62,4.5-21,4.5S546.44,1245.07,546.44,1242.94Zm0-5c0-.66.84-1.34,2.36-2,4.16,1.62,11.55,2.47,18.64,2.47s14.49-.85,18.64-2.47c1.53.63,2.36,1.31,2.36,2,0,2.13-8.62,4.5-21,4.5S546.44,1240.07,546.44,1237.94Zm0-5c0-2.12,8.63-4.5,21-4.5s21,2.38,21,4.5-8.62,4.5-21,4.5S546.44,1235.07,546.44,1232.94Zm42.26,23.49a6.54,6.54,0,0,0-1.45-1c1.34-.69,2.14-1.5,2.19-2.41v-.15a1.79,1.79,0,0,0-.09-.46c6.49-.14,12.95-1,16.73-2.45,1.53.63,2.36,1.31,2.36,2C608.44,1254,600.39,1256.27,588.7,1256.43Zm19.74-9.49c0,2.06-8.05,4.33-19.74,4.49a6.54,6.54,0,0,0-1.45-1c1.34-.69,2.14-1.5,2.19-2.41v-.15c0-.93-.84-1.74-2.19-2.44,1.34-.69,2.14-1.5,2.19-2.41v-.15a1.85,1.85,0,0,0-.07-.41C600.7,1242.7,608.44,1244.93,608.44,1246.94Zm-62,21c0-.66.84-1.34,2.36-2,4.16,1.62,11.55,2.47,18.64,2.47s14.49-.85,18.64-2.47c1.53.63,2.36,1.31,2.36,2,0,2.13-8.62,4.5-21,4.5S546.44,1270.07,546.44,1267.94Z" transform="translate(-545.44 -1227.44)"/><path class="a" d="M588.83,1241.46h0Z" transform="translate(-545.44 -1227.44)"/><path class="a" d="M589.44,1242.94v.09c-.05.91-.85,1.72-2.19,2.41,1.35.7,2.15,1.51,2.19,2.44v.15c-.05.91-.85,1.72-2.19,2.41a6.54,6.54,0,0,1,1.45,1c11.69-.16,19.74-2.43,19.74-4.49s-7.74-4.24-19.07-4.47a1.85,1.85,0,0,1,.07.41Z" transform="translate(-545.44 -1227.44)"/><path class="a" d="M589.6,1241.47h0Z" transform="translate(-545.44 -1227.44)"/><path class="a" d="M609.44,1247v0Z" transform="translate(-545.44 -1227.44)"/><path class="a" d="M590.72,1241.51h0Z" transform="translate(-545.44 -1227.44)"/><path class="c" d="M589.44,1268v0Z" transform="translate(-545.44 -1227.44)"/><path class="c" d="M566.39,1273.44h0Z" transform="translate(-545.44 -1227.44)"/><path class="c" d="M569,1273.43h0Z" transform="translate(-545.44 -1227.44)"/><path class="c" d="M567.27,1273.44h0Z" transform="translate(-545.44 -1227.44)"/><path class="c" d="M570.94,1273.37h0Z" transform="translate(-545.44 -1227.44)"/><path class="c" d="M570,1273.41h0Z" transform="translate(-545.44 -1227.44)"/><path class="c" d="M588.44,1267.94c0-.66-.83-1.34-2.36-2-4.15,1.62-11.54,2.47-18.64,2.47s-14.48-.85-18.64-2.47c-1.52.63-2.36,1.31-2.36,2,0,2.13,8.63,4.5,21,4.5S588.44,1270.07,588.44,1267.94Z" transform="translate(-545.44 -1227.44)"/><path class="c" d="M564.2,1273.38h0Z" transform="translate(-545.44 -1227.44)"/><path class="c" d="M565.32,1273.42h0Z" transform="translate(-545.44 -1227.44)"/><path class="c" d="M589.44,1262.88v0Z" transform="translate(-545.44 -1227.44)"/><path class="c" d="M588.44,1262.94c0-.66-.83-1.34-2.36-2-4.15,1.62-11.54,2.47-18.64,2.47s-14.48-.85-18.64-2.47c-1.52.63-2.36,1.31-2.36,2,0,2.13,8.63,4.5,21,4.5S588.44,1265.07,588.44,1262.94Z" transform="translate(-545.44 -1227.44)"/><path class="c" d="M589.44,1257.88v0Z" transform="translate(-545.44 -1227.44)"/><path class="c" d="M567.44,1262.44c12.38,0,21-2.37,21-4.5,0-.66-.83-1.34-2.36-2-4.15,1.62-11.54,2.47-18.64,2.47s-14.48-.85-18.64-2.47c-1.52.63-2.36,1.31-2.36,2C546.44,1260.07,555.07,1262.44,567.44,1262.44Z" transform="translate(-545.44 -1227.44)"/><path class="c" d="M589.44,1252.88v0Z" transform="translate(-545.44 -1227.44)"/><path class="c" d="M567.44,1257.44c12.38,0,21-2.37,21-4.5,0-.66-.83-1.34-2.36-2-4.15,1.62-11.54,2.47-18.64,2.47s-14.48-.85-18.64-2.47c-1.52.63-2.36,1.31-2.36,2C546.44,1255.07,555.07,1257.44,567.44,1257.44Z" transform="translate(-545.44 -1227.44)"/><path class="c" d="M589.44,1247.88v0Z" transform="translate(-545.44 -1227.44)"/><path class="c" d="M567.44,1252.44c12.38,0,21-2.37,21-4.5,0-.66-.83-1.34-2.36-2-4.15,1.62-11.54,2.47-18.64,2.47s-14.48-.85-18.64-2.47c-1.52.63-2.36,1.31-2.36,2C546.44,1250.07,555.07,1252.44,567.44,1252.44Z" transform="translate(-545.44 -1227.44)"/><path class="c" d="M589.44,1242.88v0Z" transform="translate(-545.44 -1227.44)"/><path class="c" d="M567.44,1247.44c12.38,0,21-2.37,21-4.5,0-.66-.83-1.34-2.36-2-4.15,1.62-11.54,2.47-18.64,2.47s-14.48-.85-18.64-2.47c-1.52.63-2.36,1.31-2.36,2C546.44,1245.07,555.07,1247.44,567.44,1247.44Z" transform="translate(-545.44 -1227.44)"/><path class="c" d="M589.44,1238v0Z" transform="translate(-545.44 -1227.44)"/><path class="c" d="M567.44,1242.44c12.38,0,21-2.37,21-4.5,0-.66-.83-1.34-2.36-2-4.15,1.62-11.54,2.47-18.64,2.47s-14.48-.85-18.64-2.47c-1.52.63-2.36,1.31-2.36,2C546.44,1240.07,555.07,1242.44,567.44,1242.44Z" transform="translate(-545.44 -1227.44)"/><path class="c" d="M569.6,1227.47h0Z" transform="translate(-545.44 -1227.44)"/><path class="c" d="M589.44,1233v0Z" transform="translate(-545.44 -1227.44)"/><path class="c" d="M570.72,1227.51h0Z" transform="translate(-545.44 -1227.44)"/><path class="c" d="M568.52,1227.45h0Z" transform="translate(-545.44 -1227.44)"/><path class="c" d="M564,1227.51h0Z" transform="translate(-545.44 -1227.44)"/><path class="c" d="M566.06,1227.46h0Z" transform="translate(-545.44 -1227.44)"/><path class="c" d="M565,1227.48h0Z" transform="translate(-545.44 -1227.44)"/><ellipse class="c" cx="22" cy="5.5" rx="21" ry="4.5"/></svg>