<svg xmlns="http://www.w3.org/2000/svg" viewBox="0 0 70.99 46.43"><defs><style>.a{fill:#f7931e;}.b{fill:#fff;}</style></defs><path class="a" d="M546,1240.44a11.41,11.41,0,0,0,9.21-9.21H546Z" transform="translate(-541.95 -1227.23)"/><path class="a" d="M559.2,1269.66h36.49a15.4,15.4,0,0,1,13.25-13.25v-11.93a15.4,15.4,0,0,1-13.25-13.25H559.2A15.42,15.42,0,0,1,546,1244.49v11.91A15.42,15.42,0,0,1,559.2,1269.66Zm18.24-34.61a15.4,15.4,0,1,1-15.39,15.4A15.41,15.41,0,0,1,577.44,1235.05Z" transform="translate(-541.95 -1227.23)"/><path class="a" d="M608.94,1240.44v-9.21h-9.21A11.41,11.41,0,0,0,608.94,1240.44Z" transform="translate(-541.95 -1227.23)"/><path class="a" d="M546,1260.45v9.21h9.21A11.41,11.41,0,0,0,546,1260.45Z" transform="translate(-541.95 -1227.23)"/><path class="a" d="M599.73,1269.66h9.21v-9.21A11.41,11.41,0,0,0,599.73,1269.66Z" transform="translate(-541.95 -1227.23)"/><path class="b" d="M542,1227.23v46.43h71v-46.43Zm4,17.26a15.42,15.42,0,0,0,13.25-13.26h36.49a15.4,15.4,0,0,0,13.25,13.25v11.93a15.4,15.4,0,0,0-13.25,13.25H559.2A15.42,15.42,0,0,0,546,1256.4Zm63-4a11.41,11.41,0,0,1-9.21-9.21h9.21Zm-63,0v-9.21h9.21A11.41,11.41,0,0,1,546,1240.44Zm0,20a11.41,11.41,0,0,1,9.21,9.21H546Zm53.78,9.21a11.41,11.41,0,0,1,9.21-9.21v9.21Zm-55.78-27Zm67,15.63Zm0-15.63Z" transform="translate(-541.95 -1227.23)"/><polygon class="a" points="2 15.4 2 15.4 2 15.4 2 15.4 2 15.4"/><polygon class="a" points="68.99 15.4 68.99 15.4 68.99 15.4 68.99 15.4"/><polygon class="a" points="68.99 31.03 68.99 31.03 68.99 31.03 68.99 31.03"/><path class="a" d="M577.44,1261.84a11.4,11.4,0,1,0-11.39-11.39A11.41,11.41,0,0,0,577.44,1261.84Zm-4.84-14.34a4.61,4.61,0,0,1,3.34-4v-2h3v2a4.82,4.82,0,0,1,3.26,3l-2.81,1a1.86,1.86,0,0,0-1.86-1.22h-.21a1.6,1.6,0,0,0-1.72,1.37c0,.31.16.84,1.94,1.25,3.93.91,4.75,2.81,4.75,4.26v.14a4.61,4.61,0,0,1-3.35,4v2h-3v-2a4.84,4.84,0,0,1-3.25-3l2.81-1a1.87,1.87,0,0,0,1.86,1.22h.21a1.62,1.62,0,0,0,1.72-1.35c-.07-.46-1-.94-2.42-1.27-2.84-.66-4.28-2.09-4.28-4.26Z" transform="translate(-541.95 -1227.23)"/><path class="b" d="M577.44,1265.84a15.4,15.4,0,1,0-15.39-15.39A15.4,15.4,0,0,0,577.44,1265.84Zm0-26.79a11.4,11.4,0,1,1-11.39,11.4A11.41,11.41,0,0,1,577.44,1239.05Z" transform="translate(-541.95 -1227.23)"/><path class="b" d="M576.87,1251.91c1.43.33,2.35.81,2.42,1.27a1.62,1.62,0,0,1-1.72,1.35h-.21a1.87,1.87,0,0,1-1.86-1.22l-2.81,1a4.84,4.84,0,0,0,3.25,3v2h3v-2a4.61,4.61,0,0,0,3.35-4v-.14c0-1.45-.82-3.35-4.75-4.26-1.78-.41-1.93-.94-1.94-1.25a1.6,1.6,0,0,1,1.72-1.37h.21a1.86,1.86,0,0,1,1.86,1.22l2.81-1a4.82,4.82,0,0,0-3.26-3v-2h-3v2a4.61,4.61,0,0,0-3.34,4v.15C572.59,1249.82,574,1251.25,576.87,1251.91Z" transform="translate(-541.95 -1227.23)"/></svg>