<svg xmlns="http://www.w3.org/2000/svg" viewBox="0 0 122.88 122.89"><path d="M583.17,1161.45c0-2.61,2.58-4.73,5.77-4.73s5.77,2.12,5.77,4.73v20.72c0,2.61-2.58,4.73-5.77,4.73s-5.77-2.12-5.77-4.73Zm-15.5,99.08c-.34,0-.61-1.43-.61-3.2s.27-3.2.61-3.2h15.79c.34,0,.61,1.43.61,3.2s-.27,3.2-.61,3.2Zm-50.26-36.72c-.34,0-.61-1.43-.61-3.2s.27-3.2.61-3.2H533.2c.34,0,.61,1.43.61,3.2s-.27,3.2-.61,3.2Zm25.13,0c-.34,0-.61-1.43-.61-3.2s.27-3.2.61-3.2h15.79c.34,0,.61,1.43.61,3.2s-.27,3.2-.61,3.2Zm25.13,0c-.34,0-.61-1.43-.61-3.2s.27-3.2.61-3.2h15.79c.34,0,.61,1.43.61,3.2s-.27,3.2-.61,3.2Zm25.14,0c-.34,0-.61-1.43-.61-3.2s.27-3.2.61-3.2H608.6c.34,0,.61,1.43.61,3.2s-.27,3.2-.61,3.2Zm-75.4,18.36c-.34,0-.61-1.43-.61-3.2s.27-3.2.61-3.2H533.2c.34,0,.61,1.43.61,3.2s-.27,3.2-.61,3.2Zm25.13,0c-.34,0-.61-1.43-.61-3.2s.27-3.2.61-3.2h15.79c.34,0,.61,1.43.61,3.2s-.27,3.2-.61,3.2Zm25.13,0c-.34,0-.61-1.43-.61-3.2s.27-3.2.61-3.2h15.79c.34,0,.61,1.43.61,3.2s-.27,3.2-.61,3.2Zm25.14,0c-.34,0-.61-1.43-.61-3.2s.27-3.2.61-3.2H608.6c.34,0,.61,1.43.61,3.2s-.27,3.2-.61,3.2Zm-75.4,18.36c-.34,0-.61-1.43-.61-3.2s.27-3.2.61-3.2H533.2c.34,0,.61,1.43.61,3.2s-.27,3.2-.61,3.2Zm25.13,0c-.34,0-.61-1.43-.61-3.2s.27-3.2.61-3.2h15.79c.34,0,.61,1.43.61,3.2s-.27,3.2-.61,3.2Zm-11.37-99.08c0-2.61,2.58-4.73,5.77-4.73s5.77,2.12,5.77,4.73v20.72c0,2.61-2.58,4.73-5.77,4.73s-5.77-2.12-5.77-4.73ZM508,1202H618v-23.85a2.94,2.94,0,0,0-2.93-2.93H604.56a3.2,3.2,0,1,1,0-6.4h10.55a9.35,9.35,0,0,1,9.33,9.33v92.09a9.35,9.35,0,0,1-9.33,9.33H510.89a9.36,9.36,0,0,1-9.33-9.34v-92.08a9.35,9.35,0,0,1,9.33-9.33h11.27a3.2,3.2,0,1,1,0,6.4H510.89a3,3,0,0,0-2.07.86,2.92,2.92,0,0,0-.86,2.07ZM618,1208.45H508v61.82a2.94,2.94,0,0,0,2.93,2.93H615.11a2.94,2.94,0,0,0,2.93-2.93Zm-66-33.19a3.2,3.2,0,1,1,0-6.4h21.49a3.2,3.2,0,0,1,0,6.4H552Z" transform="translate(-501.56 -1156.72)"/></svg>