<svg xmlns="http://www.w3.org/2000/svg" viewBox="0 0 119.72 122.88"><defs><style>.a{fill-rule:evenodd;}</style></defs><path class="a" d="M543.2,1155.42c9.4,0,17,11.69,17,26.1s-7.63,26.1-17,26.1-17-11.68-17-26.1S533.8,1155.42,543.2,1155.42Zm21.65,63.18c19.94,0,22.42,13.25,39.23,35.86,8.38,16.45-2.5,26.82-21.15,22.38-8.46-4.31-14.41-5.83-20.38-5.63-10.34.36-12.95,7.18-25,6.7-9.28-.25-13.46-4.14-14.27-10.07-.87-6.3,1.56-10.28,4.52-15.49C539.32,1232.07,551.21,1216.06,564.85,1218.6Zm-54.54-24.47c-7,2.78-9.27,13.77-5,24.54s13.41,17.25,20.44,14.47,9.27-13.77,5-24.54S517.34,1191.35,510.31,1194.13Zm105.38,0c7,2.78,9.27,13.77,5,24.54s-13.42,17.25-20.44,14.47-9.27-13.77-5-24.54S608.66,1191.35,615.69,1194.13Zm-33.2-39.08c9.4,0,17,11.69,17,26.1s-7.63,26.1-17,26.1-17-11.68-17-26.1S573.09,1155.05,582.49,1155.05Z" transform="translate(-503.14 -1155.05)"/></svg>