<svg xmlns="http://www.w3.org/2000/svg" viewBox="0 0 82.27 43.73"><defs><style>.a{fill:none;}.b{fill:#cccbcb;}</style></defs><rect class="a" x="17.32" y="19.07" width="3.96" height="3.73"/><rect class="a" x="17.32" y="24.62" width="3.96" height="3.73"/><rect class="a" x="11.93" y="24.62" width="3.96" height="3.73"/><rect class="a" x="11.93" y="19.07" width="3.96" height="3.73"/><rect class="a" x="66.21" y="19.07" width="3.96" height="3.73"/><path class="a" d="M544.05,1244.39v20.68h19v-19.24h8v19.24h5v-20.81l-15.88-13.16Zm15,12.85a1.38,1.38,0,0,1-1.18,1.52H548a1.38,1.38,0,0,1-1.18-1.52v-9.89a1.38,1.38,0,0,1,1.18-1.52h9.82a1.38,1.38,0,0,1,1.18,1.52Z" transform="translate(-536.31 -1228.58)"/><rect class="a" x="66.21" y="24.62" width="3.96" height="3.73"/><rect class="a" x="60.83" y="24.62" width="3.96" height="3.73"/><path class="a" d="M578.76,1244.39v20.68H583v-19.24h8v19.24h19.67v-20.81L594.8,1231.1Zm17,3a1.38,1.38,0,0,1,1.18-1.52h9.82a1.38,1.38,0,0,1,1.19,1.52v9.89a1.38,1.38,0,0,1-1.19,1.52H596.9a1.38,1.38,0,0,1-1.18-1.52Z" transform="translate(-536.31 -1228.58)"/><rect class="a" x="60.83" y="19.07" width="3.96" height="3.73"/><path class="b" d="M557.83,1245.83H548a1.38,1.38,0,0,0-1.18,1.52v9.89a1.38,1.38,0,0,0,1.18,1.52h9.82a1.38,1.38,0,0,0,1.18-1.52v-9.89A1.38,1.38,0,0,0,557.83,1245.83Zm-5.62,11.11h-4v-3.74h4Zm0-5.56h-4v-3.73h4Zm5.38,5.56h-4v-3.74h4Zm0-5.56h-4v-3.73h4Z" transform="translate(-536.31 -1228.58)"/><path class="b" d="M609.64,1240.87v-10.58h-5.56v6l-9.28-7.69L577.44,1243l-2.52-2.09v-10.58h-5.55v6l-9.28-7.69-23.78,19.7.9,1.77,5.18-4.29v26.55h70v-26.68l5.34,4.42.9-1.77ZM576,1265.07h-5v-19.24h-8v19.24h-19v-20.68l16-13.29L576,1244.26Zm34.72,0H591v-19.24h-8v19.24h-4.25v-20.68l16-13.29,15.89,13.16Z" transform="translate(-536.31 -1228.58)"/><path class="b" d="M596.9,1258.76h9.82a1.38,1.38,0,0,0,1.19-1.52v-9.89a1.38,1.38,0,0,0-1.19-1.52H596.9a1.38,1.38,0,0,0-1.18,1.52v9.89A1.38,1.38,0,0,0,596.9,1258.76Zm5.62-11.11h4v3.73h-4Zm0,5.55h4v3.74h-4Zm-5.38-5.55h4v3.73h-4Zm0,5.55h4v3.74h-4Z" transform="translate(-536.31 -1228.58)"/></svg>