<svg xmlns="http://www.w3.org/2000/svg" viewBox="0 0 45.01 40.6"><defs><style>.a{fill:#231f20;fill-rule:evenodd;}</style></defs><path class="a" d="M563.53,1197.87l1.2,5.85.44-1.26.46,2.83.85-.52-.25,2.9,1.36-.45-.8,2.77,1.3-.64-.76,2.77.94-.63-.91,3.06,1.35-.43-1.35,2.46,1.16-.09-1.12,1.68,1,.12-1.23,2.35.92-.21-1,2.41.08.12h.44l.94-1.58.32.7.94-2,.53.57.56-1.56.5.81,1-2.08.37,1.09,1.57-2.09,0,.93,1.45-1.85.21,1.16,1.43-1.87.37,1.11,1.78-1.58.08.81,2.08-1.08-.61.91,4.42-2.06-3.26,3.63,1-.32-1.64,1.67.76.31-2,1.25,1,.68-2.21.82,1,.54-2.19.85.88.31-2.46.9.94.67-2.27.32.62.71-1.65.08.39.68-2.14.34.58.5-2,.51,0,.25.09.12.88-.51-.06.59,1.39-.67-.25.7,1.73-.44-.37.48,1.56-.37-.37.66,1.57-.39-.26.7,1.63-.11-.3.44,1.58.25-.71.22,3.28.66-3.3.57.7.23-1.59.21.28.45-1.62-.16.23.71-1.55-.44.35.67-1.55-.41.34.49-1.71-.49.23.69-1.37-.71,0,.59-.93-.59-.08.49-1.3-.65.1.48-1.4-.57v.43l-1.71-.76-.08.36-1.27-1-.05.35-.89-.71-.3.36a35.43,35.43,0,0,0,.69,7.46h-2a37.83,37.83,0,0,0,.74-7.47l-.36-.43-.9.72,0-.35-1.27,1-.08-.36-1.72.76v-.43l-1.42.57.11-.48-1.31.66-.07-.49-.93.58,0-.59-1.37.71.23-.69-1.72.49.35-.49-1.55.41.35-.67-1.55.44.23-.71-1.63.16.29-.45-1.59-.21.7-.24-3.3-.56,3.28-.66-.71-.22,1.58-.26-.3-.43,1.63.1-.26-.69,1.56.39-.37-.67,1.56.37-.36-.48,1.73.45-.25-.67-.55-.13.57-.52-2.14-.31.38-.68-1.65-.06.61-.72-2.27-.3.93-.68-2.47-.87.88-.32-2.2-.82,1.05-.55-2.22-.8.94-.69-2-1.22.75-.32-1.65-1.66,1,.31-3.3-3.6,4.44,2-.62-.9,2.09,1,.07-.81,1.79,1.55.36-1.11,1.45,1.86.21-1.17,1.46,1.84,0-.93,1.6,2.07.36-1.09,1,2.06.49-.8.58,1.54.53-.57,1,1.94.31-.71,1.17,1.92.38-.56.2.37-.09-.21.83,0-1.06-2.54.92.21-1.23-2.35.95-.12-1.12-1.68,1.15.1-1.34-2.47,1.35.43-.91-3.06.94.63-.76-2.77,1.3.64-.8-2.77,1.36.45-.25-2.9.85.52.46-2.83.44,1.26,1.19-5.86Zm-8.35,30-1.29-.3,1.32.64,0-.34Z" transform="translate(-540.5 -1197.87)"/></svg>