<svg xmlns="http://www.w3.org/2000/svg" viewBox="0 0 47.56 43.73"><defs><style>.a{fill:#c1c1c0;}</style></defs><path class="a" d="M586.78,1216l-8.94-7.41V1198h-5.56v6L563,1196.3,539.22,1216l.9,1.78,5.19-4.3V1240h35.23v-26.68l5.34,4.43Zm-12.85-15.87h2.25v7.1l-2.25-1.86Zm5,32.66H547v-20.68l16-13.28L578.89,1212Z" transform="translate(-539.22 -1196.3)"/><path class="a" d="M555.83,1213.2v11.52a1.61,1.61,0,0,0,1.38,1.76h11.43a1.6,1.6,0,0,0,1.37-1.76V1213.2a1.6,1.6,0,0,0-1.37-1.76H557.21A1.61,1.61,0,0,0,555.83,1213.2Zm1.65,6.82h4.62v4.34h-4.62Zm6.27,4.34V1220h4.61v4.34Zm4.61-6.46h-4.61v-4.34h4.61Zm-6.26-4.34v4.34h-4.62v-4.34Z" transform="translate(-539.22 -1196.3)"/></svg>