<svg xmlns="http://www.w3.org/2000/svg" viewBox="0 0 71.56 98.74"><defs><style>.a{fill:none;}</style></defs><polygon class="a" points="59.7 22.01 59.7 25.7 62.87 25.7 59.7 22.01"/><polygon class="a" points="55.7 11.19 55.7 4 4 4 4 83.56 11.85 83.56 11.85 11.19 55.7 11.19"/><path class="a" d="M582.93,1198.5V1184H543.07v79.56h51.71v-65H582.93Zm-35.34-4.67h20.6v3.48h-20.6Zm0,10h20.6v3.48h-20.6Zm40.6,53.48h-20.6v-3.48h20.6Zm2.66-20H547.59v-3.48h43.26Zm0-10H547.59v-3.48h43.26Zm0-10H547.59v-3.48h43.26Z" transform="translate(-527.22 -1168.8)"/><path d="M594.78,1193.83l-7.85-9.18-.58-.67h.58V1168.8H527.22v87.55h11.85v11.19h59.71v-69Zm-7.85-3,3.16,3.69h-3.16Zm-55.71,61.54V1172.8h51.71V1180H539.07v72.37Zm63.56,11.19H543.07V1184h39.86v14.52h11.85Z" transform="translate(-527.22 -1168.8)"/><rect x="20.37" y="25.03" width="20.59" height="3.49"/><rect x="20.37" y="35.03" width="20.59" height="3.49"/><rect x="20.37" y="45.03" width="43.26" height="3.49"/><rect x="20.37" y="55.03" width="43.26" height="3.49"/><rect x="20.37" y="65.03" width="43.26" height="3.49"/><rect x="40.37" y="85.03" width="20.59" height="3.49"/></svg>