<?xml version="1.0" encoding="utf-8"?>
<!-- Generator: Adobe Illustrator 24.1.2, SVG Export Plug-In . SVG Version: 6.00 Build 0)  -->
<svg version="1.1" id="Layer_1" xmlns="http://www.w3.org/2000/svg" xmlns:xlink="http://www.w3.org/1999/xlink" x="0px" y="0px"
	 viewBox="0 0 35.7 42.1" style="enable-background:new 0 0 35.7 42.1;" xml:space="preserve">
<style type="text/css">
	.st0{fill-rule:evenodd;clip-rule:evenodd;}
</style>
<g id="Group_130" transform="translate(-5.27)">
	<path id="Path_668" class="st0" d="M21.7,24c-0.6,0.3-1.3,0.1-1.7-0.5l-1.1-2c0,3.2,0,6.1,0,9.2c0,0.8-0.6,1.4-1.4,1.4
		c-0.8,0-1.4-0.6-1.4-1.4c0,0,0,0,0,0v-6.4h-0.8v6.4c0,0.8-0.6,1.4-1.4,1.4c-0.8,0-1.4-0.6-1.4-1.4c0,0,0,0,0,0c0-3.2,0-6,0-9.2
		l-1.1,1.9c-0.3,0.6-1.1,0.8-1.7,0.5s-0.8-1.1-0.5-1.7l2.9-5c1-1.8,6-2,7.1-0.1l2.9,5.1C22.5,22.9,22.3,23.7,21.7,24z M33.5,9.5v4.8
		c0,0.4-0.3,0.7-0.7,0.7c-0.2,0-0.4-0.1-0.5-0.2c-0.1-0.1-0.2-0.3-0.2-0.5V9.5l-2.5,2.2c-0.1,0.1-0.3,0.2-0.5,0.2
		c-0.4,0-0.7-0.3-0.7-0.7c0-0.2,0.1-0.4,0.2-0.5l3.6-3.2c0.1-0.1,0.3-0.2,0.5-0.2c0.2,0,0.3,0.1,0.5,0.2l3.6,3.2
		c0.3,0.3,0.3,0.7,0.1,1l0,0c-0.1,0.1-0.3,0.2-0.5,0.2h0c-0.2,0-0.4-0.1-0.5-0.2C35.9,11.6,33.5,9.5,33.5,9.5z M32.8,18.7
		c1.3,0,2.3,1,2.3,2.3c0,1.3-1,2.3-2.3,2.3c-1.3,0-2.3-1-2.3-2.3C30.5,19.8,31.5,18.7,32.8,18.7L32.8,18.7z M33.5,32.6v-4.8
		c0-0.4-0.3-0.7-0.7-0.7c-0.2,0-0.4,0.1-0.5,0.2c-0.1,0.1-0.2,0.3-0.2,0.5v4.8l-2.5-2.2c-0.1-0.1-0.3-0.2-0.5-0.2
		c-0.4,0-0.7,0.3-0.7,0.7c0,0.2,0.1,0.4,0.2,0.5l3.6,3.2c0.1,0.1,0.3,0.2,0.5,0.2c0.2,0,0.3-0.1,0.5-0.2l3.6-3.2
		c0.3-0.3,0.3-0.7,0.1-1l0,0c-0.1-0.1-0.3-0.2-0.5-0.2h0c-0.2,0-0.4,0.1-0.5,0.2L33.5,32.6L33.5,32.6z M10.9,3.2h24.5
		c3.1,0,5.6,2.5,5.6,5.6v24.5c0,3.1-2.5,5.6-5.6,5.6H10.9c-3.1,0-5.6-2.5-5.6-5.6V8.8C5.3,5.7,7.8,3.2,10.9,3.2z M24.6,36.9V5.2
		H10.9c-2,0-3.6,1.6-3.6,3.6v24.5c0,2,1.6,3.6,3.6,3.6L24.6,36.9L24.6,36.9z M15.7,9.8c1.6,0,2.8,1.3,2.8,2.8s-1.3,2.8-2.8,2.8
		s-2.8-1.3-2.8-2.8l0,0C12.9,11.1,14.2,9.8,15.7,9.8C15.7,9.8,15.7,9.8,15.7,9.8z"/>
</g>
</svg>
