<svg xmlns="http://www.w3.org/2000/svg" xmlns:xlink="http://www.w3.org/1999/xlink" viewBox="0 0 58.6 25.6"><defs><style>.a{fill:none;}.b{clip-path:url(#a);}.c{fill:#f7931e;}.d{clip-path:url(#b);}.e{fill:#b6a37c;}</style><clipPath id="a" transform="translate(-533.7 -1205.37)"><rect class="a" x="533.7" y="1205.37" width="25.59" height="25.59"/></clipPath><clipPath id="b" transform="translate(-533.7 -1205.37)"><rect class="a" x="566.7" y="1205.37" width="25.59" height="25.59"/></clipPath></defs><g class="b"><path class="c" d="M533.7,1231v-3.2c0-3.52,5.76-6.39,12.8-6.39s12.8,2.88,12.8,6.4v3.2Zm6.4-19.19a6.4,6.4,0,1,1,6.4,6.4h0A6.41,6.41,0,0,1,540.1,1211.77Z" transform="translate(-533.7 -1205.37)"/></g><g class="d"><path class="e" d="M566.7,1231v-3.2c0-3.52,5.76-6.39,12.8-6.39s12.8,2.88,12.8,6.4v3.2Zm6.4-19.19a6.4,6.4,0,1,1,6.4,6.4h0A6.41,6.41,0,0,1,573.1,1211.77Z" transform="translate(-533.7 -1205.37)"/></g></svg>