<svg xmlns="http://www.w3.org/2000/svg" viewBox="0 0 83 89.18"><defs><style>.a{fill-rule:evenodd;}</style></defs><path class="a" d="M550.48,1226.41h8a1.27,1.27,0,0,1,1.26,1.26v6.77a1.28,1.28,0,0,1-1.26,1.26h-8a1.26,1.26,0,0,1-1.26-1.26v-6.77a1.25,1.25,0,0,1,1.26-1.26Zm32.51-1.6c-.71-2.09-1.34-4.19-1.88-6.33,2-2.2,9.74-1.91,12,0l-2.06,4.89c1.11-1.46,1.48-2,2.14-2.86a5.74,5.74,0,0,1,.79.61,3.21,3.21,0,0,1,1.21,1.93,2,2,0,0,1-.56,1.62l-4.72,5.51a10.79,10.79,0,0,1-1.78-.45c.27-.64.6-1.33.86-2l-1.72,1.85a6.51,6.51,0,0,0-4.58.56l-4.8-5.75a1.62,1.62,0,0,1-.41-1c0-1.39,2.08-2.59,3.16-3l2.38,4.5Zm-57.23-51.28h57.46a4.73,4.73,0,0,1,3.35,1.39l.08.09a4.71,4.71,0,0,1,1.31,3.26v34.1c-.43,0-.85,0-1.28,0s-1,0-1.56.06v-34.13a1.82,1.82,0,0,0-.5-1.29l0,0a1.9,1.9,0,0,0-1.35-.56H525.76a1.84,1.84,0,0,0-1.34.55h0a1.87,1.87,0,0,0-.55,1.34V1256a1.91,1.91,0,0,0,.5,1.28l.06.06a1.88,1.88,0,0,0,1.34.56h38.93a17.5,17.5,0,0,0,.57,1.73,10,10,0,0,0,.51,1.1h-40a4.73,4.73,0,0,1-3.35-1.39l-.08-.1A4.66,4.66,0,0,1,521,1256v-77.71a4.73,4.73,0,0,1,1.39-3.35h0A4.76,4.76,0,0,1,525.76,1173.53Zm5.86,9.25h45.73a2.49,2.49,0,0,1,1.77.73l.1.12a2.49,2.49,0,0,1,.63,1.66v14.29a2.51,2.51,0,0,1-.73,1.77h0a2.49,2.49,0,0,1-1.77.73H531.62a2.51,2.51,0,0,1-1.77-.73l-.1-.12a2.49,2.49,0,0,1-.63-1.66v-14.29a2.47,2.47,0,0,1,.74-1.76h0a2.45,2.45,0,0,1,1.75-.74Zm45.4,2.84H532v13.63H577v-13.63Zm12.12,49.59-.93-4.28c4,.74,10.43,8.9,12.51,12.6a35.35,35.35,0,0,1,2.75,6.31c1.51,5.64.06,10.91-6.06,12.15-3.83.77-11,.82-15,.61-4.33-.22-11-.21-12.79-4.66-2.83-7.19,2.35-15.74,7.08-21a21.86,21.86,0,0,1,1.93-1.92c1.72-1.51,3.57-3.3,5.78-4.06l-2.14,4,3.11-4.12H587l2.15,4.37Zm-2,3.51v.75a7,7,0,0,1,2.07.5,4,4,0,0,1,1.5,1.12,4.65,4.65,0,0,1,.78,1.18,2.89,2.89,0,0,1,.28,1.12,1.35,1.35,0,0,1-.41,1,1.44,1.44,0,0,1-2.43-.78,2.55,2.55,0,0,0-1.79-1.87v4.68c.93.25,1.67.49,2.22.7a4.36,4.36,0,0,1,1.48.91,4,4,0,0,1,1.08,1.47,4.65,4.65,0,0,1,.38,1.88,4.85,4.85,0,0,1-2.37,4.22,6.34,6.34,0,0,1-2.78.84v.76a2.65,2.65,0,0,1-.13,1,.56.56,0,0,1-.57.3.61.61,0,0,1-.56-.25,1.36,1.36,0,0,1-.16-.77v-1a7,7,0,0,1-2.3-.61,5.37,5.37,0,0,1-1.64-1.18,4.77,4.77,0,0,1-1-1.46,3.82,3.82,0,0,1-.31-1.49,1.35,1.35,0,0,1,.42-1,1.55,1.55,0,0,1,1.9-.19,1.26,1.26,0,0,1,.49.66,14.78,14.78,0,0,0,.52,1.41,2.58,2.58,0,0,0,.68.89,2.93,2.93,0,0,0,1.2.62v-5.22a14.11,14.11,0,0,1-2.52-.93,4.24,4.24,0,0,1-1.64-1.45,4.4,4.4,0,0,1-.63-2.43,4.29,4.29,0,0,1,1.23-3.16,5.52,5.52,0,0,1,3.56-1.44v-.73c0-.63.24-.94.71-.94s.72.3.72.92Zm-1.43,7.25v-4.3a3.93,3.93,0,0,0-1.47.74,2.1,2.1,0,0,0,0,2.74,4.77,4.77,0,0,0,1.5.82Zm1.43,3.33v4.93a3.16,3.16,0,0,0,1.75-.91,2.38,2.38,0,0,0,.62-1.6,1.94,1.94,0,0,0-.6-1.51,4.77,4.77,0,0,0-1.76-.91ZM571.41,1188h1.64v8.83h-1.64Zm-38.73,22.28h8a1.27,1.27,0,0,1,1.26,1.25v6.78a1.28,1.28,0,0,1-1.26,1.26h-8a1.27,1.27,0,0,1-1.25-1.26v-6.78A1.25,1.25,0,0,1,532.68,1210.3Zm0,32.22h8a1.27,1.27,0,0,1,1.26,1.26v6.77a1.26,1.26,0,0,1-1.26,1.26h-8a1.25,1.25,0,0,1-1.25-1.25v-6.78A1.27,1.27,0,0,1,532.68,1242.52Zm0-16.11h8a1.27,1.27,0,0,1,1.26,1.26v6.77a1.27,1.27,0,0,1-1.26,1.26h-8a1.25,1.25,0,0,1-1.25-1.26v-6.77A1.26,1.26,0,0,1,532.68,1226.41Zm35.6-16.11h8a1.25,1.25,0,0,1,1.25,1.25v4a4.43,4.43,0,0,0-.92,1.74,10.52,10.52,0,0,0-1.58,1.24,7.87,7.87,0,0,0-1,1.11h-5.8a1.28,1.28,0,0,1-1.26-1.26v-6.78a1.25,1.25,0,0,1,1.24-1.25Zm0,16.11h5.34a7.28,7.28,0,0,0,.65.92h0l2.57,3.07c-.28.23-.55.47-.81.71l-.52.45v0l0,0c-.45.4-.84.76-1.17,1.09s-.81.83-1.12,1.18c-.52.57-1,1.18-1.56,1.82h-3.37a1.25,1.25,0,0,1-1.25-1.25v-6.77a1.27,1.27,0,0,1,1.26-1.26Zm-17.8-16.11h8a1.27,1.27,0,0,1,1.26,1.25v6.78a1.28,1.28,0,0,1-1.26,1.26h-8a1.27,1.27,0,0,1-1.26-1.26v-6.78a1.25,1.25,0,0,1,1.26-1.25Zm0,32.22h8a1.27,1.27,0,0,1,1.26,1.26v6.77a1.26,1.26,0,0,1-1.26,1.26h-8a1.26,1.26,0,0,1-1.26-1.26v-6.77a1.28,1.28,0,0,1,1.26-1.26Z" transform="translate(-521.02 -1173.53)"/></svg>