<svg xmlns="http://www.w3.org/2000/svg" viewBox="0 0 501.54 243.45"><circle cx="77.14" cy="62.46" r="21.22"/><path d="M257,1128.52a7.83,7.83,0,0,0-1.72-1.54,14.11,14.11,0,0,0-24.75,7.28l-10.69,51.91a14.82,14.82,0,0,0-.12,1.74l-13.45,29.91a1.39,1.39,0,0,0-.15.19l-27.87,43.62a8,8,0,1,0,13.55,8.66l23.69-37.09a8,8,0,0,0,9.71-4.33l8.25-18.34,19.07,23.57A8,8,0,0,0,259,1237v27.88a8,8,0,1,0,16.08,0V1226.1a8,8,0,0,0-4-6.92l0,0-23.23-28.71c0-.16.07-.32.09-.48l8.61-36.5,20.57,25.43a8,8,0,1,0,12.5-10.12Z" transform="translate(-177 -1030.54)"/><path d="M359.76,1098.55H492.4a34,34,0,0,0,0-68H359.76a34,34,0,0,0,0,68Z" transform="translate(-177 -1030.54)"/><rect x="151.17" y="75.72" width="198.23" height="45.34" rx="22.67"/><circle cx="424.4" cy="62.46" r="21.22"/><path d="M677.28,1261.63,649.41,1218a1.39,1.39,0,0,0-.15-.19l-13.45-29.91a14.82,14.82,0,0,0-.12-1.74L625,1134.26a14.17,14.17,0,0,0-15.9-12.13h0a14.06,14.06,0,0,0-8.85,4.85,7.83,7.83,0,0,0-1.72,1.54L566,1168.76a8,8,0,0,0,12.5,10.12L599,1153.45l8.61,36.5c0,.16.06.32.09.48l-23.23,28.71,0,0a8,8,0,0,0-4,6.92v38.82a8,8,0,0,0,16.08,0V1237a8,8,0,0,0,6.47-2.94l19.07-23.57,8.25,18.34a8,8,0,0,0,9.71,4.33l23.69,37.09a8,8,0,1,0,13.55-8.66Z" transform="translate(-177 -1030.54)"/><path d="M568.61,1136.17v-35.69a18.81,18.81,0,0,0-37.62,0v35.69a18.81,18.81,0,0,0,37.62,0Z" transform="translate(-177 -1030.54)"/><path d="M426.08,1155H303.57a18.87,18.87,0,0,0,18.81-18.81v-35.69a18.86,18.86,0,0,0-18.81-18.81h0a18.87,18.87,0,0,0-18.81,18.81v35.69A18.87,18.87,0,0,0,303.57,1155H300.2v21.7h253V1155H426.08Z" transform="translate(-177 -1030.54)"/></svg>