<svg xmlns="http://www.w3.org/2000/svg" viewBox="0 0 148.44 122.89"><defs><style>.a{fill:#040505;fill-rule:evenodd;}</style></defs><path d="M492.09,1166.22h26.8v-9.5h23v9.5h15v-9.5h23v9.5h29.53v113.39H488.78V1166.22Zm87.75,6.61v53.9h-8.19V1273h31.1V1172.83Zm-14.8,53.9h-8.19v-53.9h-15v53.9h-8.19V1273H565Zm-38,0h-8.19v-53.9h-23.5V1273h31.69Z" transform="translate(-488.78 -1156.72)"/><path class="a" d="M627.89,1228.65a10.93,10.93,0,0,1,4.34.07v-30.45L600,1207.52v35.37a5.68,5.68,0,0,1,0,.59h0c0,4.76-5,9.49-11.16,10.56s-11.16-1.94-11.16-6.7,5-9.49,11.16-10.55a12.55,12.55,0,0,1,6.26.4v-43.53h.27l41.7-9.56v49.05a5.6,5.6,0,0,1,.11,1.09h0c0,4-4.18,7.93-9.32,8.81s-9.32-1.61-9.32-5.59,4.17-7.93,9.32-8.81Z" transform="translate(-488.78 -1156.72)"/></svg>