<svg xmlns="http://www.w3.org/2000/svg" viewBox="0 0 73.58 73.58"><defs><style>.a{fill:#231f20;fill-rule:evenodd;}</style></defs><path class="a" d="M570.67,1203.14c7-7.53,8.16-.69,13.29.75.62.18,1.08.22,1,.51-.45,2.95-1.41,3.51-2.48,3.54a7.53,7.53,0,0,0-2.87.35,5.37,5.37,0,0,0-2,1.64l-7.29-3.72a12.16,12.16,0,0,0,.36-3.07Zm-26.87-8L560,1211.27c4.1,0,7.68-.37,9.48-3.12l7.39,3.2c-1.42,3.8.2,9.29-4.87,11.92l14.1,14.1a30,30,0,0,0-42.27-42.27Zm37.26,47-10.89-10.88c.07,1.07.18,2.17.33,3.23l.84-.09c1.52-.16,1.5,1.22.79,2.11h-4.5c-.21-2.79-.64-5.76-.81-8.61l-4.08-4.07a15.09,15.09,0,0,1-2.28-.72c-1.24-.47-6.4-3.55-7.79-2.3-.78.71,1.31,3.54-3.87,8.55l.09,5h.88c1.32,0,1.25,1.33.77,2.19H548c-1.7,0-1.34.18-1.36-1.61l0-3.86-.28-2.39c0-1.42,1-2.94.05-6.33-.65-2.24-.59-4-2.28-4.28-1.57,3.16-3.07,6-4.39,9.37-.09.22-.21.43-.31.65-1.5,3.45-2.14.86-1.29-1.19l.56-1.37c.72-2.9,2.75-8.33,4.66-10.35a12.28,12.28,0,0,1,7.25-3.51L539,1200.11a30,30,0,0,0,42,42ZM563,1181.37a36.8,36.8,0,1,1-36.79,36.8A36.8,36.8,0,0,1,563,1181.37Z" transform="translate(-526.21 -1181.37)"/></svg>