<svg xmlns="http://www.w3.org/2000/svg" viewBox="0 0 73.58 73.58"><defs><style>.a{fill:none;}</style></defs><path class="a" d="M569.44,1230.33l.1.48-1.4-.56v.42l-1.71-.75-.08.36-1.27-1-.05.36-.89-.72-.3.36a35.3,35.3,0,0,0,.69,7.46h-2a37.8,37.8,0,0,0,.74-7.46l-.36-.43-.9.72,0-.36-1.27,1-.08-.36-1.72.76v-.42l-1.42.56.11-.47-1.31.65-.07-.49-.93.59,0-.59-1.37.71.23-.7-1.72.49.35-.49-1.55.42.35-.68-1.55.44.23-.7-1.63.15.29-.44-1.59-.21.7-.24-3.3-.57L548,1228l-.71-.22,1.58-.25-.3-.44,1.63.11-.26-.7,1.56.39-.37-.66,1.56.37-.36-.48,1.73.44-.25-.67-.55-.13.57-.51-2.14-.31.38-.68-1.65-.07.61-.72-2.27-.29.93-.69-2.47-.86.88-.32-2.2-.82,1.05-.56-2.22-.8.94-.69-2-1.22.75-.32-1.65-1.65,1,.3-3.3-3.59,4.44,2-.62-.9,2.09,1.06.07-.82,1.79,1.56.36-1.12,1.45,1.87.21-1.17,1.46,1.83,0-.93,1.6,2.07.36-1.09,1,2.07.49-.81.58,1.55.53-.58,1,2,.31-.71,1.17,1.92.38-.56.2.36-.09-.2.83,0-.8-1.9-19.85-19.84a30,30,0,0,0,42.17,42.16l-10.85-10.85,0,.13Z" transform="translate(-526.21 -1181.37)"/><path class="a" d="M563,1188.13a29.9,29.9,0,0,0-18.62,6.48l15.18,15.19-.58-2.12,1.3.64-.8-2.77,1.36.44-.25-2.9.85.52.46-2.82.44,1.26,1.19-5.87,1.2,5.85.44-1.26.46,2.83.85-.52-.25,2.9,1.36-.44-.8,2.77,1.3-.64-.76,2.77.94-.64-.91,3.07,1.35-.43-1.35,2.46,1.16-.09-1.12,1.68,1,.11-.68,1.3,1.57,1.58.51-1,.53.57.56-1.55.5.8,1-2.08.37,1.09,1.57-2.09,0,.93,1.45-1.85.21,1.16,1.43-1.87.37,1.11,1.78-1.58.08.82,2.08-1.08-.61.91,4.42-2.07-3.26,3.63,1-.32-1.64,1.68.76.31-2,1.24,1,.68-2.21.82,1,.55-2.19.84.88.31-2.46.9.94.67-2.27.32.62.71-1.65.09.29.49,2.1,2.1.61-.15-.21.55.14.14,1.44-.1-.3.44,1.58.26-.71.22,3.28.66-3.26.55,0,0,.63.21-.37,0,7.25,7.24A30,30,0,0,0,563,1188.13Z" transform="translate(-526.21 -1181.37)"/><polygon points="46.09 43.72 46.67 44.22 44.64 44.73 44.67 44.98 44.77 45.1 45.64 44.59 45.58 45.18 46.98 44.51 46.72 45.21 48.45 44.77 48.09 45.24 49.65 44.88 49.27 45.54 50.23 45.3 48.13 43.19 48.23 43.38 46.09 43.72"/><polygon points="52.84 47.9 52.8 47.87 52.76 47.88 52.84 47.9"/><polygon points="41.83 37.37 40.82 39.78 40.9 39.9 41.34 39.89 42.28 38.31 42.6 39.01 43.04 38.1 41.46 36.52 40.91 37.58 41.83 37.37"/><polygon points="50.77 45.83 50.63 45.7 50.58 45.85 50.77 45.83"/><polygon points="27.69 44.48 29 45.12 28.97 44.78 27.69 44.48"/><path d="M563,1181.37a36.8,36.8,0,1,0,36.79,36.8A36.8,36.8,0,0,0,563,1181.37Zm0,66.82a30,30,0,0,1-23.56-48.64l19.85,19.84.8,1.9-.83,0,.09.2-.2-.36-.38.56-1.17-1.92-.31.71-1-2-.53.58-.58-1.55-.49.81-1-2.07-.36,1.09-1.6-2.07,0,.93-1.46-1.83-.21,1.17-1.45-1.87-.36,1.12-1.79-1.56-.07.82-2.09-1.06.62.9-4.44-2,3.3,3.59-1-.3,1.65,1.65-.75.32,2,1.22-.94.69,2.22.8-1.05.56,2.2.82-.88.32,2.47.86-.93.69,2.27.29-.61.72,1.65.07-.38.68,2.14.31-.57.51.55.13.25.67-1.73-.44.36.48-1.56-.37.37.66-1.56-.39.26.7-1.63-.11.3.44-1.58.25.71.22-3.28.66,3.3.57-.7.24,1.59.21-.29.44,1.63-.15-.23.7,1.55-.44-.35.68,1.55-.42-.35.49,1.72-.49-.23.7,1.37-.71,0,.59.93-.59.07.49,1.31-.65-.11.47,1.42-.56v.42l1.72-.76.08.36,1.27-1,0,.36.9-.72.36.43a37.8,37.8,0,0,1-.74,7.46h2a35.3,35.3,0,0,1-.69-7.46l.3-.36.89.72.05-.36,1.27,1,.08-.36,1.71.75v-.42l1.4.56-.1-.48,1.3.66,0-.13,10.85,10.85A29.87,29.87,0,0,1,563,1248.19Zm-7.79-21.7-1.32-.63,1.29.3Zm31.34,10.29-7.25-7.24.37,0-.63-.21-.07,0h0l3.26-.55L579,1228l.71-.22-1.58-.26.3-.44-1.44.1h-.19l.05-.15.21-.55-.61.15-1,.24.37-.66-1.56.37.37-.48-1.73.44.25-.7-1.39.67.06-.59-.88.52-.09-.13,0-.25,2-.5-.58-.51,2.14-.33-.1-.19-.29-.49,1.65-.09-.62-.71,2.27-.32-.94-.67,2.46-.9-.88-.31,2.19-.84-1-.55,2.21-.82-1-.68,2-1.24-.76-.31,1.64-1.68-1,.32,3.26-3.63-4.42,2.07.61-.91-2.08,1.08-.08-.82-1.78,1.58-.37-1.11-1.43,1.87-.21-1.16-1.45,1.85,0-.93-1.57,2.09-.37-1.09-1,2.08-.5-.8-.56,1.55-.53-.57-.51,1-.43.91-.32-.71-.94,1.58h-.44l-.08-.11,1-2.42-.92.21.55-1,.68-1.3-1-.11,1.12-1.68-1.16.09,1.35-2.46-1.35.43.91-3.07-.94.64.76-2.77-1.3.64.8-2.77-1.36.44.25-2.9-.85.52-.46-2.83-.44,1.26-1.2-5.85-1.19,5.87-.44-1.26-.46,2.82-.85-.52.25,2.9-1.36-.44.8,2.77-1.3-.64.58,2.12-15.18-15.19a30,30,0,0,1,42.17,42.17Z" transform="translate(-526.21 -1181.37)"/></svg>