<svg xmlns="http://www.w3.org/2000/svg" viewBox="0 0 73.58 73.58"><defs><style>.a{fill:#231f20;fill-rule:evenodd;}</style></defs><path class="a" d="M563,1181.37a36.8,36.8,0,1,0,36.79,36.8A36.8,36.8,0,0,0,563,1181.37Zm0,66.82a30,30,0,0,1-23.56-48.64l13.06,13V1229a7.5,7.5,0,0,0-3.76-.25c-3.69.64-6.69,3.47-6.69,6.33s3,4.65,6.69,4,6.69-3.48,6.69-6.33h0c0-.12,0-.24,0-.36v-16.86l11.67,11.67a4.06,4.06,0,0,0-.54,1.94c0,2.39,2.5,3.89,5.59,3.36l.2,0,9.27,9.27A29.87,29.87,0,0,1,563,1248.19Zm11.74-24.3a6.09,6.09,0,0,0-1.23-.15L559.71,1210l15-4.32Zm11.81,12.89-8.9-8.9a3.08,3.08,0,0,0,.08-.68h0a3.7,3.7,0,0,0-.07-.66v-29.4l-25,5.73h0l-8.26-8.26a30,30,0,0,1,42.17,42.17Z" transform="translate(-526.21 -1181.37)"/></svg>