<svg xmlns="http://www.w3.org/2000/svg" viewBox="0 0 73.58 73.58"><defs><style>.a{fill:none;}</style></defs><path class="a" d="M548,1208.07l-10,3.6v23.12c.48.72,1,1.41,1.53,2.09L565.9,1226Z" transform="translate(-526.21 -1181.37)"/><path class="a" d="M584.39,1218.39l5.45-2.25v15.48a30,30,0,0,0-5.45-34.53Z" transform="translate(-526.21 -1181.37)"/><path class="a" d="M583.28,1196l-.55-.49-27.51,9.92,17.67,17.68,10.39-4.29Z" transform="translate(-526.21 -1181.37)"/><path class="a" d="M543.42,1240.91a30,30,0,0,0,38.19.8l-.8-.8Z" transform="translate(-526.21 -1181.37)"/><path class="a" d="M579.83,1193.29a30,30,0,0,0-35.45,1.32l8.42,8.43Z" transform="translate(-526.21 -1181.37)"/><path class="a" d="M536.9,1212.06l-1.32.48-1.05-2.91,11-4-6.11-6.1A30,30,0,0,0,536.9,1233Z" transform="translate(-526.21 -1181.37)"/><path d="M563,1181.37a36.79,36.79,0,0,0-29.94,58.17l-3.32,1.37h4.35A36.79,36.79,0,1,0,563,1181.37Zm30,36.79a29.83,29.83,0,0,1-3.19,13.46v-15.48l-5.45,2.25v-21.3A29.93,29.93,0,0,1,593,1218.16Zm-53.5,18.72c-.54-.68-1-1.37-1.53-2.09v-23.12l10-3.6L565.9,1226Zm15.69-31.43,27.51-9.92.55.49v22.82l-10.39,4.29Zm7.78-17.32a29.84,29.84,0,0,1,16.83,5.16l-27,9.75-8.42-8.43A29.9,29.9,0,0,1,563,1188.13Zm-23.56,11.42,6.11,6.1-11,4,1.05,2.91,1.32-.48V1233a30,30,0,0,1,2.54-33.45ZM563,1248.19a29.87,29.87,0,0,1-19.58-7.28h37.39l.8.8A29.87,29.87,0,0,1,563,1248.19Z" transform="translate(-526.21 -1181.37)"/></svg>