<svg xmlns="http://www.w3.org/2000/svg" viewBox="0 0 73.58 73.58"><defs><style>.a{fill:none;}</style></defs><path class="a" d="M563,1188.13a29.9,29.9,0,0,0-18.62,6.48l23.93,23.93,14.74-8.12,2.43,4.42L572,1222.25l14.53,14.53A30,30,0,0,0,563,1188.13Z" transform="translate(-526.21 -1181.37)"/><path class="a" d="M557.64,1230.18l-2.43-4.42,6.74-3.71-22.51-22.5a30,30,0,0,0,42.17,42.16l-16-16Zm-13.11-22c-.41,13,10.43,5.92,5.57,17.89C550.41,1215.08,538.76,1220.28,544.53,1208.18Zm8.38,24.6-2.43-4.41,1.37-.75,2.43,4.41Zm2.39-1.32-2.43-4.41,1.37-.75,2.43,4.41Z" transform="translate(-526.21 -1181.37)"/><path d="M563,1181.37a36.8,36.8,0,1,0,36.79,36.8A36.8,36.8,0,0,0,563,1181.37Zm0,66.82a30,30,0,0,1-23.56-48.64l22.51,22.5-6.74,3.71,2.43,4.42,8-4.42,16,16A29.87,29.87,0,0,1,563,1248.19Zm23.55-11.41L572,1222.25l13.46-7.41-2.43-4.42-14.74,8.12-23.93-23.93a30,30,0,0,1,42.17,42.17Z" transform="translate(-526.21 -1181.37)"/><rect x="553.99" y="1226.36" width="1.56" height="5.04" transform="translate(-1050.32 -761.15) rotate(-28.85)"/><rect x="551.59" y="1227.68" width="1.56" height="5.04" transform="translate(-1051.26 -762.14) rotate(-28.85)"/><path d="M544.53,1208.18c-5.77,12.1,5.88,6.9,5.57,17.89C555,1214.1,544.12,1221.13,544.53,1208.18Z" transform="translate(-526.21 -1181.37)"/></svg>