<svg xmlns="http://www.w3.org/2000/svg" viewBox="0 0 122.88 111.2"><defs><style>.a{fill-rule:evenodd;}</style></defs><path class="a" d="M584.15,1161.82l-33.53,32.84,8.18,4.3,25.13-26.39L609.5,1199l8.18-4.3-33.53-32.84Zm-84.36,66.75,35.32-1.86,1.57,39.45L501.36,1268l-1.57-39.44ZM541,1262.68l-1.31-33,14.83-.59c6.33.88,12.76,4,19.2,7.75l11.52-.46c5.23.11,8.17,5.28,3.24,9-3.92,3.12-9.26,3.17-14.74,2.89-3.77,0-3.74,5,.19,4.9,1.37,0,2.84-.33,4.14-.38,6.82-.28,12.38-1.8,15.6-7.33l1.57-4.1,16.8-9.18c8.46-3.16,14.16,4.81,8.09,11.3-12,9.52-23.74,18.21-36.51,24.73-9.23,6.13-18.69,6.31-28.37,1.13L541,1262.68Zm19.58-62.86h0l23.59-23.6,23.52,23.6h0V1223H590.52v-16.36h-12.9V1223h-17v-23.16Z" transform="translate(-499.79 -1161.82)"/></svg>