<svg xmlns="http://www.w3.org/2000/svg" viewBox="0 0 85.29 85.29"><defs><style>.a{fill:none;}</style></defs><path class="a" d="M523.22,1258l41.55-.11v-2.14a4.26,4.26,0,0,1-4.25-4.25v-17.11h-.06a2.75,2.75,0,0,1-.41-.11,2,2,0,0,1-1.07-1l-1.22-2.67a2,2,0,0,1,.14-1.91,2,2,0,0,1,1.68-.92H561v-13.46l-1-1.29-7.78-10.41a4,4,0,0,1-.36-4.23,4,4,0,0,1,3.53-2.17h.12l4,.1a4.1,4.1,0,0,1,4.18-3.32h31.52a3.85,3.85,0,0,1,4,3.63v-18.17h-76Z" transform="translate(-520.36 -1175.52)"/><path d="M520.36,1175.52v85.29h85.28v-85.29Zm78.89,21v8a3.64,3.64,0,0,1-3.8,3.44H566.37l1.86,2.48a4.06,4.06,0,0,1,.79,2.4v14.79h1.45a2,2,0,0,1,1.76,3l-1.45,2.67a2,2,0,0,1-1.25,1v16.81a4.6,4.6,0,0,1-4.59,4.59h-.17v2.14l-41.55.11v-79.57h76Z" transform="translate(-520.36 -1175.52)"/><path d="M560.05,1204.06a2,2,0,0,1-.58-1.42v-4.4l-4-.1h-.07a2,2,0,0,0-1.57,3.2l9.15,12.24v14.12h4v-14.79a2.07,2.07,0,0,0-.39-1.2l-4.19-5.6A21.58,21.58,0,0,1,560.05,1204.06Z" transform="translate(-520.36 -1175.52)"/><path d="M595.22,1194.92H563.7a2,2,0,0,0-2.23,1.8v5.92a33.72,33.72,0,0,0,4.21,3.39h29.77a1.66,1.66,0,0,0,1.8-1.44v-8A1.86,1.86,0,0,0,595.22,1194.92Z" transform="translate(-520.36 -1175.52)"/><path d="M560.8,1232.36h1.72v19.09a2.25,2.25,0,0,0,2.25,2.25h.17a2.59,2.59,0,0,0,2.59-2.59v-18.75H569l1.45-2.66H559.58Z" transform="translate(-520.36 -1175.52)"/></svg>