<svg xmlns="http://www.w3.org/2000/svg" xmlns:xlink="http://www.w3.org/1999/xlink" viewBox="0 0 471.9 289.66"><defs><style>.a{fill:none;}.b{clip-path:url(#a);}.c{fill:#f7931e;}.d{fill:#fff;}.e{clip-path:url(#b);}</style><clipPath id="a" transform="translate(-320.34 -970.5)"><rect class="a" x="336" y="1031.05" width="174.41" height="174.41"/></clipPath><clipPath id="b" transform="translate(-320.34 -970.5)"><rect class="a" x="502.57" y="970.5" width="289.66" height="289.66"/></clipPath></defs><g class="b"><path class="c" d="M423.2,1216.53l-5.54-5.53-15.85-15.86-5.54-5.54,5.54-5.54,46.65-46.65H328.17V1099.1H448.46l-46.65-46.65-5.54-5.54,5.54-5.54,15.85-15.85,5.54-5.54,5.54,5.54,87.2,87.2,5.54,5.54-5.54,5.53L428.74,1211Z" transform="translate(-320.34 -970.5)"/><path class="d" d="M423.2,1031.05l-15.85,15.86,60,60H336v22.65H467.37l-60,60,15.85,15.86,87.2-87.2-87.2-87.21m0-22.15L434.28,1020l87.2,87.2,11.08,11.08-11.08,11.07-87.2,87.2-11.08,11.08-11.07-11.08-15.86-15.85-11.08-11.08,11.08-11.07,33.28-33.29H320.34v-54H429.55L396.27,1058l-11.08-11.07,11.08-11.08L412.13,1020Z" transform="translate(-320.34 -970.5)"/></g><g class="e"><path class="c" d="M502.57,1260.16V1224c0-39.83,65.17-72.42,144.84-72.42s144.83,32.59,144.83,72.42v36.2ZM575,1042.92a72.42,72.42,0,1,1,72.43,72.41A72.42,72.42,0,0,1,575,1042.92Z" transform="translate(-320.34 -970.5)"/></g></svg>