<svg xmlns="http://www.w3.org/2000/svg" xmlns:xlink="http://www.w3.org/1999/xlink" viewBox="0 0 49 53"><defs><style>.a{fill:none;}.b{clip-path:url(#a);}.c{fill:#f7931e;}.d{clip-path:url(#b);}.e{fill:#fccd84;}.f{fill:#fff;}</style><clipPath id="a" transform="translate(-552.94 -1223.94)"><rect class="a" x="552.94" y="1223.94" width="36.98" height="36.98"/></clipPath><clipPath id="b" transform="translate(-552.94 -1223.94)"><rect class="a" x="574.94" y="1249.94" width="25" height="25"/></clipPath></defs><g class="b"><path class="c" d="M552.94,1260.93v-4.62c0-5.09,8.33-9.25,18.5-9.25s18.49,4.16,18.49,9.25v4.62Zm9.25-27.74a9.25,9.25,0,1,1,9.25,9.25A9.26,9.26,0,0,1,562.19,1233.19Z" transform="translate(-552.94 -1223.94)"/></g><g class="d"><path class="e" d="M590,1275.94h-5.13V1265H573.94v-5.13h10.94v-10.94H590v10.94h10.93V1265H590v10.93Z" transform="translate(-552.94 -1223.94)"/><path class="f" d="M589,1274.94V1264h10.93v-3.13H589v-10.94h-3.13v10.94H574.94V1264h10.94v10.93H589m2,2h-7.13V1266H572.94v-7.13h10.94v-10.94H591v10.94h10.93V1266H591v10.93Z" transform="translate(-552.94 -1223.94)"/></g></svg>