<svg xmlns="http://www.w3.org/2000/svg" viewBox="0 0 398.67 398.67"><defs><style>.a{fill:#f7931e;}.b{fill:#fbb03b;}.c{fill:#fff;}</style></defs><path class="a" d="M593,1086a245,245,0,0,1,56.25,6.33c-8.8-16.56-30.22-30.61-58.74-39.4a65.72,65.72,0,0,1-25.22-6,252,252,0,0,0-43.7-3.74c-72.63,0-132.05,29.71-132.05,66v33h72.89C472,1110.46,527,1086,593,1086Z" transform="translate(-389.53 -878.05)"/><path class="a" d="M583.66,921.57a66,66,0,1,0-52.76,87.87,66.06,66.06,0,0,1,52.76-87.87Z" transform="translate(-389.53 -878.05)"/><path class="b" d="M593,1053a67.75,67.75,0,1,0-2.49-.06C591.33,1052.92,592.16,1053,593,1053Z" transform="translate(-389.53 -878.05)"/><path class="b" d="M594.7,1152.42h99.58l-30.34-30.35-10.1-10.1,10.1-10.1,4.12-4.12a190.85,190.85,0,0,0-18.82-5.46A245,245,0,0,0,593,1086c-66,0-121,24.5-130.57,56.19a33.91,33.91,0,0,0-1.48,9.84v33H594.7v-32.58Z" transform="translate(-389.53 -878.05)"/><polygon class="a" points="378.47 298.97 298.96 219.46 284.51 233.92 339.23 288.64 219.46 288.64 219.46 309.29 339.23 309.29 284.51 364.02 298.96 378.48 378.47 298.97"/><path class="c" d="M778.1,1166.92l-79.51-79.5-10.1-10.1-10.1,10.1-10.33,10.33-4.12,4.12-10.1,10.1,10.1,10.1,30.34,30.35H594.7v49.21h99.58L663.94,1232l-10.1,10.1,10.1,10.1,14.45,14.46,10.1,10.1,10.1-10.1,79.51-79.51,10.1-10.1Zm-49.34,20.43H609V1166.7H728.76L674,1112l14.45-14.45L768,1177l-79.51,79.51L674,1242.07Z" transform="translate(-389.53 -878.05)"/></svg>