<svg xmlns="http://www.w3.org/2000/svg" viewBox="0 0 37.58 34.54"><defs><style>.a{fill:#49402f;}</style></defs><path class="a" d="M589.17,1242.89v-8.37h-4.39v4.73l-7.34-6.08-18.79,15.56.71,1.4,4.1-3.4v21H591.3v-21.06l4.22,3.5.71-1.4Zm-3.09-6.69h1.78v5.6l-1.78-1.47ZM590,1262H573.51v-14.77h-6.33V1262h-2.41v-16.34l12.67-10.5,12.56,10.4Z" transform="translate(-558.65 -1233.17)"/><path class="a" d="M578.54,1257h7.76a1.09,1.09,0,0,0,.94-1.2V1248a1.1,1.1,0,0,0-.94-1.2h-7.76a1.1,1.1,0,0,0-.93,1.2v7.82A1.09,1.09,0,0,0,578.54,1257Zm4.44-8.78h3.14v3H583Zm0,4.39h3.14v2.95H583Zm-4.25-4.39h3.13v3h-3.13Zm0,4.39h3.13v2.95h-3.13Z" transform="translate(-558.65 -1233.17)"/></svg>