<svg xmlns="http://www.w3.org/2000/svg" viewBox="0 0 191 122.87"><defs><style>.a{fill:#393939;}</style></defs><path d="M518,1156.21a13,13,0,1,1-9.19,3.81A13,13,0,0,1,518,1156.21Zm-24.67,37.59,9.25-6.06c2.09-1.37,7.78-2.16,13.34-2.2,5.19,0,10.42.57,12.68,2l9.33,6.11,1.4.93a7.21,7.21,0,0,1,.81.62c.36-.35.74-.68,1.13-1l1.55-1.21c.79-.61,1.57-1.25,2.36-1.92s1.54-1.34,2.32-2.06,1.57-1.46,2.29-2.17,1.41-1.41,2.1-2.11l.09-.09a6.83,6.83,0,0,1,9.53-.2l.1.09a6.82,6.82,0,0,1,.12,9.62c-.81.84-1.64,1.67-2.47,2.49s-1.7,1.64-2.53,2.41-1.77,1.6-2.7,2.39-1.87,1.55-2.89,2.34l-1.4,1.09a.7.7,0,0,1-.17.13c-3.53,2.75-5.32,4.15-8.54,4.41h0a9.2,9.2,0,0,1-4.68-.79,29.62,29.62,0,0,1-4.37-2.6l.79,15.3.28.28a8.08,8.08,0,0,1,.7.87c.88,1.26,1.77,2.54,2.64,3.84s1.82,2.74,2.74,4.21,1.76,2.85,2.59,4.32,1.63,3,2.4,4.54c3.8,7.75,3.78,7.82,1.63,14.5-.08.26-.17.52-.25.77-.13.41-.26.8-.36,1.13,0,0-4.88,16-5.33,17.5a7.46,7.46,0,0,1-9.3,5h0a7.47,7.47,0,0,1-5-9.31l5.29-17.37,0-.12.41-1.34.26-.79c.33-1,.34-1-.77-3.31l0-.07c-.61-1.24-1.28-2.48-2-3.73s-1.47-2.5-2.25-3.74c-.42-.66-.9-1.39-1.41-2.17l-1-1.53h-.11c.14.54.26,1,.38,1.52q.33,1.41.6,2.85c1.86,9.83,1.35,10.88-2.15,17.55a1.19,1.19,0,0,1-.13.25l-.61,1.18-.74,1.45L513.46,1275a7.45,7.45,0,0,1-10,3.35h0a7.46,7.46,0,0,1-3.35-10l7.72-15.41c.58-1.16,1.05-2.06,1.46-2.84l.07-.14a9.42,9.42,0,0,0,1.28-3.15,17.28,17.28,0,0,0-.54-4.85c-.15-.79-.32-1.58-.5-2.36s-.38-1.58-.57-2.28-.41-1.41-.69-2.3h0c-.23-.73-.51-1.55-.84-2.48v0c-.08-.24-.15-.47-.2-.69l-.1-.44a2.82,2.82,0,0,1-.07-.31l-3.06-28c-1.51,1-3.19,2-4.67,3.06a30.11,30.11,0,0,1-4.51,2.68,9.18,9.18,0,0,1-4.68.79,9.78,9.78,0,0,1-4.36-1.36,37.89,37.89,0,0,1-4.22-3c-.53-.39-1.06-.82-1.58-1.23-1-.78-2-1.56-2.89-2.34s-1.83-1.59-2.7-2.39-1.67-1.57-2.53-2.41-1.66-1.65-2.47-2.49a6.84,6.84,0,0,1,.05-9.55l.08-.08a6.82,6.82,0,0,1,9.54,0l.08.08c.71.73,1.43,1.46,2.17,2.18s1.48,1.43,2.29,2.17,1.56,1.41,2.32,2.06,1.57,1.31,2.36,1.92c.51.4,1,.83,1.55,1.21s.85.71,1.14,1a8.07,8.07,0,0,1,.73-.58C492.3,1194.44,492.8,1194.13,493.29,1193.8Z" transform="translate(-467.53 -1156.21)"/><path class="a" d="M612.91,1160.31a11.36,11.36,0,0,0-8.31,3.68,13.14,13.14,0,0,0,0,17.77,11.21,11.21,0,0,0,15.85.77,9.32,9.32,0,0,0,.77-.77,13.17,13.17,0,0,0,0-17.77A11.36,11.36,0,0,0,612.91,1160.31Zm22.32,36.34-8.37-5.86c-1.89-1.32-7-2.09-12.07-2.13-4.7,0-9.43.55-11.47,1.9l-8.44,5.91-1.27.9a6.83,6.83,0,0,0-.73.6,11.58,11.58,0,0,0-1-1l-1.4-1.17c-.72-.59-1.42-1.21-2.14-1.85s-1.39-1.3-2.1-2-1.42-1.41-2.07-2.1-1.27-1.36-1.9-2l-.08-.08a5.89,5.89,0,0,0-8.33-.46l-.29.27-.09.09a6.94,6.94,0,0,0-.11,9.3c.74.81,1.49,1.61,2.24,2.4s1.54,1.59,2.29,2.33,1.6,1.55,2.44,2.31,1.69,1.5,2.61,2.27l1.27,1,.15.13c3.2,2.65,4.82,4,7.73,4.26h0a7.92,7.92,0,0,0,4.23-.76,26.7,26.7,0,0,0,3.95-2.52l-.71,14.79-.26.27a10.22,10.22,0,0,0-.63.84q-1.2,1.83-2.39,3.72c-.81,1.3-1.64,2.65-2.48,4.07s-1.59,2.75-2.34,4.17-1.47,2.87-2.17,4.39c-3.44,7.49-3.42,7.56-1.47,14,.07.25.15.5.22.74.12.4.24.77.33,1.09,0,0,4.41,15.45,4.82,16.92a7.11,7.11,0,0,0,3.28,4.27,6.28,6.28,0,0,0,5.13.54h0a6.83,6.83,0,0,0,4-3.51,7.62,7.62,0,0,0,.51-5.49l-4.79-16.79,0-.11-.37-1.3-.24-.77c-.3-1-.31-1,.7-3.2l0-.06c.55-1.2,1.16-2.4,1.8-3.61s1.33-2.42,2-3.61c.38-.64.82-1.35,1.28-2.1l.92-1.48h.1c-.13.52-.23,1-.34,1.47-.2.9-.38,1.82-.55,2.75-1.68,9.5-1.22,10.52,1.95,17a1.34,1.34,0,0,0,.12.24l.55,1.14.67,1.4,7,14.86a6.9,6.9,0,0,0,3.9,3.62,6.34,6.34,0,0,0,5.13-.38h0a7,7,0,0,0,3.38-4.16,7.63,7.63,0,0,0-.35-5.48l-7-14.9c-.53-1.13-1-2-1.33-2.75l-.06-.13a10.17,10.17,0,0,1-1.16-3.05,18.51,18.51,0,0,1,.49-4.69q.21-1.14.45-2.28c.18-.79.35-1.52.52-2.2s.37-1.36.62-2.22h0c.2-.71.46-1.5.76-2.4v0a6.19,6.19,0,0,0,.19-.67l.09-.42a1.59,1.59,0,0,0,.06-.3l2.76-27c1.37,1,2.89,1.93,4.23,3a27,27,0,0,0,4.08,2.59,7.92,7.92,0,0,0,4.23.76,8.43,8.43,0,0,0,4-1.31,33.9,33.9,0,0,0,3.81-2.94c.48-.38,1-.8,1.43-1.19.93-.76,1.79-1.51,2.62-2.26s1.65-1.54,2.44-2.31,1.51-1.52,2.29-2.33,1.5-1.6,2.23-2.41a6.92,6.92,0,0,0,0-9.23l-.07-.08a5.9,5.9,0,0,0-8.33-.26,2.91,2.91,0,0,0-.3.31l-.08.08c-.64.7-1.29,1.41-2,2.1s-1.34,1.39-2.07,2.1-1.41,1.37-2.1,2-1.42,1.27-2.14,1.86c-.46.39-.93.8-1.4,1.17s-.76.69-1,1a5.13,5.13,0,0,0-.66-.56c-.49-.32-.94-.62-1.38-.94Z" transform="translate(-467.53 -1156.21)"/></svg>