<svg xmlns="http://www.w3.org/2000/svg" viewBox="0 0 51.43 40.07"><defs><style>.a{fill:#393939;fill-rule:evenodd;}</style></defs><path class="a" d="M573.36,1204c7.58-8.19,8.86-.75,14.45.82.68.18,1.18.23,1.13.55-.49,3.21-1.53,3.81-2.7,3.84a8.47,8.47,0,0,0-3.12.38,5.78,5.78,0,0,0-2.22,1.79l-7.94-4.05a13.37,13.37,0,0,0,.4-3.33Zm6.71,8.93c-1.7,4.5.56,11.2-7,13.66a45.17,45.17,0,0,0,.1,11.5l.92-.1c1.65-.17,1.64,1.33.86,2.3h-4.89c-.36-4.6-1.24-9.63-.88-14-2.57.69-4.12.5-6.92-.57-1.35-.51-7-3.86-8.47-2.5-.85.77,1.43,3.85-4.21,9.3l.1,5.39h1c1.44,0,1.36,1.45.84,2.39H548.7c-1.85,0-1.46.2-1.49-1.75l0-4.2-.3-2.6c0-1.55,1.11-3.2,0-6.89-.7-2.44-.64-4.38-2.48-4.65-1.7,3.43-3.34,6.58-4.77,10.18-.1.25-.23.48-.34.71-1.64,3.76-2.32.94-1.4-1.3l.61-1.49c.78-3.14,3-9,5.06-11.24,7.85-8.27,23.74-.45,28.42-7.61l8.05,3.48Z" transform="translate(-537.52 -1200.24)"/></svg>