<svg id="Layer_1" data-name="Layer 1" xmlns="http://www.w3.org/2000/svg" viewBox="0 0 30.3 30.3"><defs><style>.cls-1{fill:#f7931e;fill-rule:evenodd;}</style></defs><title>zupcanik</title><g id="Group_121" data-name="Group 121"><path id="Path_718" data-name="Path 718" class="cls-1" d="M572,1206.64l2.18,2.18a1.48,1.48,0,0,1,0,2.08l-1.76,1.75a11.54,11.54,0,0,1,1.09,2.9h2.27a1.47,1.47,0,0,1,1.47,1.47v3.08a1.47,1.47,0,0,1-1.47,1.47h-2.48a11.69,11.69,0,0,1-1.28,2.81l1.61,1.61a1.48,1.48,0,0,1,0,2.08l-2.18,2.17a1.48,1.48,0,0,1-2.08,0l-1.75-1.75a11.94,11.94,0,0,1-2.9,1.09v2.26a1.49,1.49,0,0,1-1.47,1.48h-3.07a1.49,1.49,0,0,1-1.48-1.48v-2.47a11.69,11.69,0,0,1-2.81-1.28l-1.61,1.6a1.48,1.48,0,0,1-2.08,0l-2.17-2.17a1.48,1.48,0,0,1,0-2.08l1.75-1.75a12.09,12.09,0,0,1-1.09-2.9h-2.27a1.48,1.48,0,0,1-1.47-1.48v-3.07a1.47,1.47,0,0,1,1.47-1.47h2.48a11.76,11.76,0,0,1,1.28-2.82l-1.6-1.6a1.46,1.46,0,0,1,0-2.08l2.17-2.18a1.48,1.48,0,0,1,2.08,0l1.75,1.75a11.66,11.66,0,0,1,2.9-1.08v-2.27A1.47,1.47,0,0,1,561,1203H564a1.47,1.47,0,0,1,1.47,1.47V1207a11.55,11.55,0,0,1,2.81,1.29l1.6-1.6a1.47,1.47,0,0,1,2.09,0Zm-9.9,5.48a6,6,0,1,1-6,6.05A6.05,6.05,0,0,1,562.11,1212.12Z" transform="translate(-546.96 -1203.02)"/></g></svg>